nevis-Bold-kerned.ufo
<glyph name="exclam" format="1">
  <advance width="407"/>
  <unicode hex="0021"/>
  <outline>
    <contour>
      <point x="344" y="1334" type="curve"/>
      <point x="263" y="399" type="line"/>
      <point x="131" y="399" type="line"/>
      <point x="82" y="1334" type="line"/>
      <point x="82" y="1430"/>
      <point x="112" y="1466"/>
      <point x="213" y="1466" type="curve" smooth="yes"/>
      <point x="316" y="1466"/>
      <point x="344" y="1430"/>
    </contour>
    <contour>
      <point x="202" y="0" type="curve" smooth="yes"/>
      <point x="295" y="0"/>
      <point x="352" y="60"/>
      <point x="352" y="140" type="curve" smooth="yes"/>
      <point x="352" y="220"/>
      <point x="296" y="281"/>
      <point x="200" y="281" type="curve" smooth="yes"/>
      <point x="109" y="281"/>
      <point x="52" y="220"/>
      <point x="52" y="140" type="curve" smooth="yes"/>
      <point x="52" y="60"/>
      <point x="109" y="0"/>
    </contour>
  </outline>
</glyph>
<glyph name="quotedbl" format="1">
  <advance width="624"/>
  <unicode hex="0022"/>
  <outline>
    <contour>
      <point x="264" y="1478" type="curve"/>
      <point x="210" y="1098" type="line"/>
      <point x="100" y="1098" type="line"/>
      <point x="47" y="1474" type="line" smooth="yes"/>
      <point x="45" y="1487"/>
      <point x="44" y="1495"/>
      <point x="44" y="1500" type="curve" smooth="yes"/>
      <point x="44" y="1539"/>
      <point x="71" y="1587"/>
      <point x="154" y="1587" type="curve" smooth="yes"/>
      <point x="234" y="1587"/>
      <point x="266" y="1540"/>
      <point x="266" y="1501" type="curve" smooth="yes"/>
      <point x="266" y="1498"/>
      <point x="265" y="1490"/>
    </contour>
    <contour>
      <point x="576" y="1478" type="curve"/>
      <point x="523" y="1098" type="line"/>
      <point x="412" y="1098" type="line"/>
      <point x="360" y="1475" type="line"/>
      <point x="357" y="1487"/>
      <point x="356" y="1495"/>
      <point x="356" y="1500" type="curve" smooth="yes"/>
      <point x="356" y="1539"/>
      <point x="384" y="1587"/>
      <point x="467" y="1587" type="curve" smooth="yes"/>
      <point x="547" y="1587"/>
      <point x="578" y="1540"/>
      <point x="578" y="1501" type="curve" smooth="yes"/>
      <point x="578" y="1498"/>
      <point x="577" y="1490"/>
    </contour>
  </outline>
</glyph>
<glyph name="numbersign" format="1">
  <advance width="1495"/>
  <unicode hex="0023"/>
  <outline>
    <contour>
      <point x="808" y="609" type="line"/>
      <point x="892" y="876" type="line"/>
      <point x="673" y="876" type="line"/>
      <point x="590" y="609" type="line"/>
    </contour>
    <contour>
      <point x="193" y="1064" type="line"/>
      <point x="488" y="1064" type="line"/>
      <point x="618" y="1499" type="line"/>
      <point x="855" y="1499" type="line"/>
      <point x="724" y="1064" type="line"/>
      <point x="942" y="1064" type="line"/>
      <point x="1074" y="1499" type="line"/>
      <point x="1310" y="1499" type="line"/>
      <point x="1179" y="1064" type="line"/>
      <point x="1468" y="1064" type="line"/>
      <point x="1417" y="881" type="line"/>
      <point x="1128" y="881" type="line"/>
      <point x="1047" y="614" type="line"/>
      <point x="1356" y="614" type="line"/>
      <point x="1304" y="430" type="line"/>
      <point x="994" y="430" type="line"/>
      <point x="864" y="0" type="line"/>
      <point x="628" y="0" type="line"/>
      <point x="757" y="430" type="line"/>
      <point x="541" y="430" type="line"/>
      <point x="409" y="0" type="line"/>
      <point x="173" y="0" type="line"/>
      <point x="303" y="430" type="line"/>
      <point x="30" y="430" type="line"/>
      <point x="82" y="614" type="line"/>
      <point x="353" y="614" type="line"/>
      <point x="437" y="881" type="line"/>
      <point x="142" y="881" type="line"/>
    </contour>
  </outline>
</glyph>
<glyph name="dollar" format="1">
  <advance width="1206"/>
  <unicode hex="0024"/>
  <outline>
    <contour>
      <point x="690" y="618" type="curve"/>
      <point x="690" y="290" type="line"/>
      <point x="819" y="315"/>
      <point x="885" y="422"/>
      <point x="820" y="535" type="curve" smooth="yes"/>
      <point x="798" y="572"/>
      <point x="755" y="600"/>
    </contour>
    <contour>
      <point x="550" y="928" type="curve"/>
      <point x="550" y="1207" type="line"/>
      <point x="445" y="1180"/>
      <point x="373" y="1070"/>
      <point x="440" y="990" type="curve" smooth="yes"/>
      <point x="461" y="965"/>
      <point x="497" y="945"/>
    </contour>
    <contour>
      <point x="550" y="1600" type="line"/>
      <point x="690" y="1600" type="line"/>
      <point x="690" y="1498" type="line"/>
      <point x="894" y="1487"/>
      <point x="1017" y="1433"/>
      <point x="1150" y="1300" type="curve"/>
      <point x="950" y="1100" type="line"/>
      <point x="887" y="1175"/>
      <point x="801" y="1215"/>
      <point x="690" y="1220" type="curve"/>
      <point x="690" y="898" type="line"/>
      <point x="927" y="866"/>
      <point x="1170" y="747"/>
      <point x="1170" y="440" type="curve" smooth="yes"/>
      <point x="1170" y="200"/>
      <point x="925" y="27"/>
      <point x="690" y="4" type="curve"/>
      <point x="690" y="-100" type="line"/>
      <point x="550" y="-100" type="line"/>
      <point x="550" y="2" type="line"/>
      <point x="331" y="13"/>
      <point x="163" y="87"/>
      <point x="30" y="220" type="curve"/>
      <point x="230" y="420" type="line"/>
      <point x="294" y="343"/>
      <point x="401" y="297"/>
      <point x="550" y="282" type="curve"/>
      <point x="550" y="642" type="line"/>
      <point x="326" y="673"/>
      <point x="90" y="767"/>
      <point x="90" y="1060" type="curve" smooth="yes"/>
      <point x="90" y="1325"/>
      <point x="353" y="1473"/>
      <point x="550" y="1497" type="curve"/>
    </contour>
  </outline>
</glyph>
<glyph name="percent" format="1">
  <advance width="1742"/>
  <unicode hex="0025"/>
  <outline>
    <contour>
      <point x="1418" y="1500" type="line"/>
      <point x="570" y="0" type="line"/>
      <point x="324" y="0" type="line"/>
      <point x="1174" y="1500" type="line"/>
    </contour>
    <contour>
      <point x="31" y="1135" type="curve" smooth="yes"/>
      <point x="31" y="1348"/>
      <point x="194" y="1511"/>
      <point x="407" y="1511" type="curve" smooth="yes"/>
      <point x="620" y="1511"/>
      <point x="783" y="1348"/>
      <point x="783" y="1135" type="curve" smooth="yes"/>
      <point x="783" y="922"/>
      <point x="620" y="759"/>
      <point x="407" y="759" type="curve" smooth="yes"/>
      <point x="194" y="759"/>
      <point x="31" y="922"/>
    </contour>
    <contour>
      <point x="594" y="1136" type="curve" smooth="yes"/>
      <point x="594" y="1249"/>
      <point x="516" y="1334"/>
      <point x="403" y="1334" type="curve" smooth="yes"/>
      <point x="292" y="1334"/>
      <point x="214" y="1249"/>
      <point x="214" y="1136" type="curve" smooth="yes"/>
      <point x="214" y="1023"/>
      <point x="292" y="937"/>
      <point x="404" y="937" type="curve" smooth="yes"/>
      <point x="516" y="937"/>
      <point x="594" y="1023"/>
    </contour>
    <contour>
      <point x="962" y="365" type="curve" smooth="yes"/>
      <point x="962" y="577"/>
      <point x="1123" y="738"/>
      <point x="1335" y="738" type="curve" smooth="yes"/>
      <point x="1547" y="738"/>
      <point x="1708" y="577"/>
      <point x="1708" y="365" type="curve" smooth="yes"/>
      <point x="1708" y="153"/>
      <point x="1547" y="-8"/>
      <point x="1335" y="-8" type="curve" smooth="yes"/>
      <point x="1123" y="-8"/>
      <point x="962" y="153"/>
    </contour>
    <contour>
      <point x="1516" y="366" type="curve" smooth="yes"/>
      <point x="1516" y="475"/>
      <point x="1440" y="559"/>
      <point x="1329" y="559" type="curve" smooth="yes"/>
      <point x="1221" y="559"/>
      <point x="1144" y="475"/>
      <point x="1144" y="366" type="curve" smooth="yes"/>
      <point x="1144" y="255"/>
      <point x="1221" y="172"/>
      <point x="1330" y="172" type="curve" smooth="yes"/>
      <point x="1439" y="172"/>
      <point x="1516" y="255"/>
    </contour>
  </outline>
</glyph>
<glyph name="ampersand" format="1">
  <advance width="1473"/>
  <unicode hex="0026"/>
  <outline>
    <contour>
      <point x="1149" y="355" type="curve"/>
      <point x="1444" y="0" type="line"/>
      <point x="1103" y="0" type="line"/>
      <point x="980" y="150" type="line"/>
      <point x="861" y="43"/>
      <point x="737" y="-6"/>
      <point x="553" y="-6" type="curve" smooth="yes"/>
      <point x="188" y="-6"/>
      <point x="34" y="215"/>
      <point x="34" y="422" type="curve" smooth="yes"/>
      <point x="34" y="610"/>
      <point x="146" y="760"/>
      <point x="369" y="871" type="curve"/>
      <point x="269" y="990"/>
      <point x="228" y="1097"/>
      <point x="228" y="1193" type="curve" smooth="yes"/>
      <point x="228" y="1370"/>
      <point x="375" y="1511"/>
      <point x="638" y="1511" type="curve" smooth="yes"/>
      <point x="891" y="1511"/>
      <point x="1032" y="1364"/>
      <point x="1032" y="1177" type="curve" smooth="yes"/>
      <point x="1032" y="1058"/>
      <point x="980" y="962"/>
      <point x="765" y="827" type="curve"/>
      <point x="969" y="558" type="line"/>
      <point x="993" y="601"/>
      <point x="1017" y="663"/>
      <point x="1041" y="745" type="curve"/>
      <point x="1285" y="667" type="line"/>
      <point x="1234" y="487"/>
      <point x="1205" y="424"/>
    </contour>
    <contour>
      <point x="556" y="1076" type="curve" smooth="yes"/>
      <point x="625" y="996" type="line"/>
      <point x="701" y="1054" type="line" smooth="yes"/>
      <point x="750" y="1091"/>
      <point x="775" y="1130"/>
      <point x="775" y="1173" type="curve" smooth="yes"/>
      <point x="775" y="1245"/>
      <point x="727" y="1293"/>
      <point x="635" y="1293" type="curve" smooth="yes"/>
      <point x="546" y="1293"/>
      <point x="502" y="1251"/>
      <point x="502" y="1192" type="curve" smooth="yes"/>
      <point x="502" y="1157"/>
      <point x="520" y="1119"/>
    </contour>
    <contour>
      <point x="801" y="338" type="curve"/>
      <point x="515" y="691" type="line"/>
      <point x="386" y="626"/>
      <point x="322" y="528"/>
      <point x="322" y="432" type="curve" smooth="yes"/>
      <point x="322" y="311"/>
      <point x="408" y="226"/>
      <point x="541" y="226" type="curve" smooth="yes"/>
      <point x="629" y="226"/>
      <point x="705" y="258"/>
    </contour>
  </outline>
</glyph>
<glyph name="quotesingle" format="1">
  <advance width="312"/>
  <unicode hex="0027"/>
  <outline>
    <contour>
      <point x="264" y="1478" type="curve"/>
      <point x="210" y="1098" type="line"/>
      <point x="100" y="1098" type="line"/>
      <point x="47" y="1474" type="line" smooth="yes"/>
      <point x="45" y="1487"/>
      <point x="44" y="1495"/>
      <point x="44" y="1500" type="curve" smooth="yes"/>
      <point x="44" y="1539"/>
      <point x="71" y="1587"/>
      <point x="154" y="1587" type="curve" smooth="yes"/>
      <point x="234" y="1587"/>
      <point x="266" y="1540"/>
      <point x="266" y="1501" type="curve" smooth="yes"/>
      <point x="266" y="1498"/>
      <point x="265" y="1490"/>
    </contour>
  </outline>
</glyph>
<glyph name="parenleft" format="1">
  <advance width="732"/>
  <unicode hex="0028"/>
  <outline>
    <contour>
      <point x="267" y="1373" type="curve" smooth="yes"/>
      <point x="313" y="1446"/>
      <point x="355" y="1503"/>
      <point x="392" y="1545" type="curve" smooth="yes"/>
      <point x="427" y="1583" type="line"/>
      <point x="706" y="1583" type="line"/>
      <point x="701" y="1573"/>
      <point x="692" y="1561"/>
      <point x="679" y="1546" type="curve" smooth="yes"/>
      <point x="658" y="1523"/>
      <point x="644" y="1506"/>
      <point x="635" y="1494" type="curve"/>
      <point x="487" y="1269"/>
      <point x="386" y="1004"/>
      <point x="386" y="680" type="curve" smooth="yes"/>
      <point x="386" y="653"/>
      <point x="386" y="627"/>
      <point x="387" y="601" type="curve"/>
      <point x="386" y="576"/>
      <point x="386" y="549"/>
      <point x="386" y="522" type="curve" smooth="yes"/>
      <point x="386" y="197"/>
      <point x="487" y="-64"/>
      <point x="635" y="-288" type="curve"/>
      <point x="644" y="-300"/>
      <point x="658" y="-318"/>
      <point x="679" y="-341" type="curve" smooth="yes"/>
      <point x="692" y="-356"/>
      <point x="701" y="-369"/>
      <point x="706" y="-380" type="curve"/>
      <point x="427" y="-380" type="line"/>
      <point x="392" y="-341" type="line" smooth="yes"/>
      <point x="355" y="-298"/>
      <point x="313" y="-241"/>
      <point x="267" y="-170" type="curve" smooth="yes"/>
      <point x="115" y="67"/>
      <point x="45" y="324"/>
      <point x="42" y="601" type="curve" smooth="yes"/>
      <point x="45" y="878"/>
      <point x="115" y="1136"/>
    </contour>
  </outline>
</glyph>
<glyph name="parenright" format="1">
  <advance width="734"/>
  <unicode hex="0029"/>
  <outline>
    <contour>
      <point x="465" y="-170" type="curve" smooth="yes"/>
      <point x="419" y="-241"/>
      <point x="377" y="-298"/>
      <point x="340" y="-341" type="curve" smooth="yes"/>
      <point x="305" y="-380" type="line"/>
      <point x="26" y="-380" type="line"/>
      <point x="31" y="-369"/>
      <point x="40" y="-356"/>
      <point x="53" y="-341" type="curve" smooth="yes"/>
      <point x="74" y="-318"/>
      <point x="88" y="-300"/>
      <point x="97" y="-288" type="curve"/>
      <point x="245" y="-64"/>
      <point x="346" y="197"/>
      <point x="346" y="522" type="curve" smooth="yes"/>
      <point x="346" y="549"/>
      <point x="346" y="576"/>
      <point x="345" y="601" type="curve"/>
      <point x="346" y="627"/>
      <point x="346" y="653"/>
      <point x="346" y="680" type="curve" smooth="yes"/>
      <point x="346" y="1004"/>
      <point x="245" y="1269"/>
      <point x="97" y="1494" type="curve"/>
      <point x="88" y="1506"/>
      <point x="74" y="1523"/>
      <point x="53" y="1546" type="curve" smooth="yes"/>
      <point x="40" y="1561"/>
      <point x="31" y="1573"/>
      <point x="26" y="1583" type="curve"/>
      <point x="305" y="1583" type="line"/>
      <point x="340" y="1545" type="line" smooth="yes"/>
      <point x="377" y="1503"/>
      <point x="419" y="1446"/>
      <point x="465" y="1373" type="curve" smooth="yes"/>
      <point x="617" y="1136"/>
      <point x="687" y="878"/>
      <point x="690" y="601" type="curve"/>
      <point x="687" y="324"/>
      <point x="617" y="67"/>
    </contour>
  </outline>
</glyph>
<glyph name="asterisk" format="1">
  <advance width="698"/>
  <unicode hex="002A"/>
  <outline>
    <contour>
      <point x="196" y="1000" type="line"/>
      <point x="116" y="1044" type="line"/>
      <point x="265" y="1265" type="line"/>
      <point x="36" y="1344" type="line"/>
      <point x="68" y="1442" type="line"/>
      <point x="296" y="1359" type="line"/>
      <point x="296" y="1600" type="line"/>
      <point x="396" y="1600" type="line"/>
      <point x="396" y="1359" type="line"/>
      <point x="623" y="1445" type="line"/>
      <point x="661" y="1349" type="line"/>
      <point x="426" y="1260" type="line"/>
      <point x="571" y="1065" type="line"/>
      <point x="496" y="1000" type="line"/>
      <point x="344" y="1200" type="line"/>
    </contour>
  </outline>
</glyph>
<glyph name="plus" format="1">
  <advance width="1008"/>
  <unicode hex="002B"/>
  <outline>
    <contour>
      <point x="626" y="267" type="line"/>
      <point x="382" y="267" type="line"/>
      <point x="382" y="597" type="line"/>
      <point x="30" y="597" type="line"/>
      <point x="30" y="837" type="line"/>
      <point x="382" y="837" type="line"/>
      <point x="382" y="1167" type="line"/>
      <point x="626" y="1167" type="line"/>
      <point x="626" y="837" type="line"/>
      <point x="978" y="837" type="line"/>
      <point x="978" y="597" type="line"/>
      <point x="626" y="597" type="line"/>
    </contour>
  </outline>
</glyph>
<glyph name="hyphen" format="1">
  <advance width="736"/>
  <unicode hex="002D"/>
  <outline>
    <contour>
      <point x="677" y="600" type="line"/>
      <point x="677" y="401" type="line"/>
      <point x="57" y="401" type="line"/>
      <point x="57" y="600" type="line"/>
    </contour>
  </outline>
</glyph>
<glyph name="period" format="1">
  <advance width="404"/>
  <unicode hex="002E"/>
  <outline>
    <contour>
      <point x="202" y="0" type="curve" smooth="yes"/>
      <point x="295" y="0"/>
      <point x="352" y="60"/>
      <point x="352" y="140" type="curve" smooth="yes"/>
      <point x="352" y="220"/>
      <point x="296" y="281"/>
      <point x="200" y="281" type="curve" smooth="yes"/>
      <point x="109" y="281"/>
      <point x="52" y="220"/>
      <point x="52" y="140" type="curve" smooth="yes"/>
      <point x="52" y="60"/>
      <point x="109" y="0"/>
    </contour>
  </outline>
</glyph>
<glyph name="slash" format="1">
  <advance width="801"/>
  <unicode hex="002F"/>
  <outline>
    <contour>
      <point x="577" y="1444" type="line"/>
      <point x="772" y="1444" type="line"/>
      <point x="224" y="-60" type="line"/>
      <point x="29" y="-60" type="line"/>
    </contour>
  </outline>
</glyph>
<glyph name="zero" format="1">
  <advance width="1156"/>
  <unicode hex="0030"/>
  <outline>
    <contour>
      <point x="26" y="750" type="curve" smooth="yes"/>
      <point x="26" y="1177"/>
      <point x="243" y="1500"/>
      <point x="576" y="1500" type="curve" smooth="yes"/>
      <point x="911" y="1500"/>
      <point x="1126" y="1177"/>
      <point x="1126" y="750" type="curve" smooth="yes"/>
      <point x="1126" y="323"/>
      <point x="911" y="0"/>
      <point x="576" y="0" type="curve" smooth="yes"/>
      <point x="243" y="0"/>
      <point x="26" y="325"/>
    </contour>
    <contour>
      <point x="826" y="750" type="curve" smooth="yes"/>
      <point x="826" y="1017"/>
      <point x="710" y="1220"/>
      <point x="575" y="1220" type="curve" smooth="yes"/>
      <point x="443" y="1220"/>
      <point x="326" y="1017"/>
      <point x="326" y="750" type="curve" smooth="yes"/>
      <point x="326" y="483"/>
      <point x="442" y="280"/>
      <point x="577" y="280" type="curve" smooth="yes"/>
      <point x="709" y="280"/>
      <point x="826" y="483"/>
    </contour>
  </outline>
</glyph>
<glyph name="two" format="1">
  <advance width="1093"/>
  <unicode hex="0032"/>
  <outline>
    <contour>
      <point x="1044" y="1060" type="curve" smooth="yes"/>
      <point x="1044" y="713"/>
      <point x="688" y="391"/>
      <point x="515" y="300" type="curve"/>
      <point x="1055" y="300" type="line"/>
      <point x="1055" y="0" type="line"/>
      <point x="44" y="0" type="line"/>
      <point x="44" y="300" type="line"/>
      <point x="177" y="300"/>
      <point x="689" y="765"/>
      <point x="749" y="905" type="curve" smooth="yes"/>
      <point x="809" y="1045"/>
      <point x="757" y="1220"/>
      <point x="504" y="1220" type="curve" smooth="yes"/>
      <point x="384" y="1220"/>
      <point x="291" y="1180"/>
      <point x="224" y="1100" type="curve"/>
      <point x="24" y="1300" type="line"/>
      <point x="157" y="1433"/>
      <point x="238" y="1500"/>
      <point x="543" y="1500" type="curve" smooth="yes"/>
      <point x="836" y="1500"/>
      <point x="1044" y="1352"/>
    </contour>
  </outline>
</glyph>
<glyph name="three" format="1">
  <advance width="1183"/>
  <unicode hex="0033"/>
  <outline>
    <contour>
      <point x="997" y="740" type="curve" smooth="yes"/>
      <point x="1100" y="693"/>
      <point x="1152" y="593"/>
      <point x="1152" y="440" type="curve" smooth="yes"/>
      <point x="1152" y="200"/>
      <point x="894" y="0"/>
      <point x="601" y="0" type="curve" smooth="yes"/>
      <point x="322" y="0"/>
      <point x="145" y="87"/>
      <point x="12" y="220" type="curve"/>
      <point x="212" y="420" type="line"/>
      <point x="279" y="340"/>
      <point x="392" y="293"/>
      <point x="552" y="280" type="curve"/>
      <point x="819" y="280"/>
      <point x="868" y="422"/>
      <point x="802" y="535" type="curve" smooth="yes"/>
      <point x="769" y="592"/>
      <point x="652" y="623"/>
      <point x="453" y="630" type="curve"/>
      <point x="453" y="900" type="line"/>
      <point x="652" y="887"/>
      <point x="769" y="908"/>
      <point x="802" y="965" type="curve" smooth="yes"/>
      <point x="868" y="1078"/>
      <point x="819" y="1220"/>
      <point x="552" y="1220" type="curve" smooth="yes"/>
      <point x="425" y="1220"/>
      <point x="329" y="1180"/>
      <point x="262" y="1100" type="curve"/>
      <point x="62" y="1300" type="line"/>
      <point x="195" y="1433"/>
      <point x="322" y="1500"/>
      <point x="601" y="1500" type="curve" smooth="yes"/>
      <point x="894" y="1500"/>
      <point x="1112" y="1300"/>
      <point x="1112" y="1060" type="curve" smooth="yes"/>
      <point x="1112" y="920"/>
      <point x="1067" y="825"/>
      <point x="977" y="775" type="curve" smooth="yes"/>
      <point x="968" y="770"/>
      <point x="959" y="765"/>
      <point x="948" y="760" type="curve"/>
      <point x="966" y="753"/>
      <point x="982" y="747"/>
    </contour>
  </outline>
</glyph>
<glyph name="four" format="1">
  <advance width="1215"/>
  <unicode hex="0034"/>
  <outline>
    <contour>
      <point x="22" y="629" type="line"/>
      <point x="13" y="639" type="line"/>
      <point x="693" y="1499" type="line"/>
      <point x="693" y="1501" type="line"/>
      <point x="992" y="1501" type="line"/>
      <point x="992" y="629" type="line"/>
      <point x="1194" y="629" type="line"/>
      <point x="1194" y="330" type="line"/>
      <point x="992" y="330" type="line"/>
      <point x="992" y="0" type="line"/>
      <point x="693" y="0" type="line"/>
      <point x="693" y="330" type="line"/>
      <point x="12" y="330" type="line"/>
      <point x="12" y="629" type="line"/>
    </contour>
    <contour>
      <point x="693" y="1107" type="line"/>
      <point x="328" y="629" type="line"/>
      <point x="693" y="629" type="line"/>
    </contour>
  </outline>
</glyph>
<glyph name="five" format="1">
  <advance width="1160"/>
  <unicode hex="0035"/>
  <outline>
    <contour>
      <point x="103" y="730" type="line"/>
      <point x="103" y="1500" type="line"/>
      <point x="1023" y="1500" type="line"/>
      <point x="1023" y="1220" type="line"/>
      <point x="403" y="1220" type="line"/>
      <point x="403" y="1010" type="line"/>
      <point x="523" y="1010" type="line" smooth="yes"/>
      <point x="722" y="1010"/>
      <point x="874" y="965"/>
      <point x="977" y="875" type="curve"/>
      <point x="1080" y="772"/>
      <point x="1132" y="637"/>
      <point x="1132" y="470" type="curve" smooth="yes"/>
      <point x="1132" y="217"/>
      <point x="904" y="0"/>
      <point x="611" y="0" type="curve" smooth="yes"/>
      <point x="332" y="0"/>
      <point x="155" y="87"/>
      <point x="22" y="220" type="curve"/>
      <point x="222" y="420" type="line"/>
      <point x="289" y="340"/>
      <point x="395" y="297"/>
      <point x="542" y="290" type="curve" smooth="yes"/>
      <point x="722" y="290"/>
      <point x="820" y="356"/>
      <point x="837" y="488" type="curve"/>
      <point x="833" y="573"/>
      <point x="802" y="635"/>
      <point x="745" y="674" type="curve"/>
      <point x="714" y="707"/>
      <point x="607" y="725"/>
      <point x="423" y="730" type="curve" smooth="yes"/>
    </contour>
  </outline>
</glyph>
<glyph name="six" format="1">
  <advance width="1155"/>
  <unicode hex="0036"/>
  <outline>
    <contour>
      <point x="598" y="1499" type="curve" smooth="yes"/>
      <point x="771" y="1495"/>
      <point x="911" y="1445"/>
      <point x="1018" y="1350" type="curve"/>
      <point x="868" y="1150" type="line"/>
      <point x="795" y="1190"/>
      <point x="709" y="1210"/>
      <point x="611" y="1210" type="curve" smooth="yes"/>
      <point x="438" y="1210"/>
      <point x="330" y="1097"/>
      <point x="318" y="870" type="curve"/>
      <point x="419" y="957"/>
      <point x="519" y="1000"/>
      <point x="618" y="1000" type="curve" smooth="yes"/>
      <point x="965" y="1000"/>
      <point x="1128" y="807"/>
      <point x="1128" y="500" type="curve" smooth="yes"/>
      <point x="1128" y="220"/>
      <point x="935" y="0"/>
      <point x="588" y="0" type="curve" smooth="yes"/>
      <point x="188" y="13"/>
      <point x="28" y="285"/>
      <point x="28" y="729" type="curve" smooth="yes"/>
      <point x="28" y="1210"/>
      <point x="251" y="1494"/>
    </contour>
    <contour>
      <point x="598" y="281" type="curve"/>
      <point x="751" y="287"/>
      <point x="831" y="353"/>
      <point x="838" y="480" type="curve"/>
      <point x="831" y="647"/>
      <point x="748" y="730"/>
      <point x="588" y="730" type="curve" smooth="yes"/>
      <point x="448" y="723"/>
      <point x="371" y="646"/>
      <point x="358" y="499" type="curve"/>
      <point x="365" y="360"/>
      <point x="445" y="287"/>
    </contour>
  </outline>
</glyph>
<glyph name="seven" format="1">
  <advance width="1029"/>
  <unicode hex="0037"/>
  <outline>
    <contour>
      <point x="1030" y="1390" type="line"/>
      <point x="471" y="0" type="line"/>
      <point x="179" y="0" type="line"/>
      <point x="180" y="100" type="line"/>
      <point x="649" y="1220" type="line"/>
      <point x="7" y="1220" type="line"/>
      <point x="6" y="1500" type="line"/>
      <point x="1030" y="1500" type="line"/>
    </contour>
  </outline>
</glyph>
<glyph name="eight" format="1">
  <advance width="1106"/>
  <unicode hex="0038"/>
  <outline>
    <contour>
      <point x="382" y="365" type="curve" smooth="yes"/>
      <point x="412" y="313"/>
      <point x="468" y="285"/>
      <point x="551" y="281" type="curve"/>
      <point x="716" y="289"/>
      <point x="786" y="422"/>
      <point x="721" y="535" type="curve" smooth="yes"/>
      <point x="696" y="578"/>
      <point x="639" y="607"/>
      <point x="551" y="621" type="curve"/>
      <point x="375" y="593"/>
      <point x="315" y="478"/>
    </contour>
    <contour>
      <point x="721" y="1135" type="curve" smooth="yes"/>
      <point x="690" y="1187"/>
      <point x="634" y="1215"/>
      <point x="551" y="1219" type="curve"/>
      <point x="386" y="1211"/>
      <point x="315" y="1078"/>
      <point x="382" y="965" type="curve" smooth="yes"/>
      <point x="407" y="922"/>
      <point x="463" y="899"/>
      <point x="551" y="896" type="curve"/>
      <point x="727" y="901"/>
      <point x="786" y="1022"/>
    </contour>
    <contour>
      <point x="916" y="740" type="curve" smooth="yes"/>
      <point x="1019" y="693"/>
      <point x="1071" y="593"/>
      <point x="1071" y="440" type="curve" smooth="yes"/>
      <point x="1071" y="133"/>
      <point x="857" y="0"/>
      <point x="550" y="0" type="curve" smooth="yes"/>
      <point x="246" y="0"/>
      <point x="31" y="133"/>
      <point x="31" y="440" type="curve" smooth="yes"/>
      <point x="31" y="593"/>
      <point x="83" y="693"/>
      <point x="186" y="740" type="curve" smooth="yes"/>
      <point x="201" y="747"/>
      <point x="217" y="753"/>
      <point x="235" y="760" type="curve"/>
      <point x="224" y="765"/>
      <point x="215" y="770"/>
      <point x="206" y="775" type="curve" smooth="yes"/>
      <point x="116" y="825"/>
      <point x="71" y="920"/>
      <point x="71" y="1060" type="curve" smooth="yes"/>
      <point x="71" y="1340"/>
      <point x="259" y="1500"/>
      <point x="552" y="1500" type="curve" smooth="yes"/>
      <point x="843" y="1500"/>
      <point x="1031" y="1340"/>
      <point x="1031" y="1060" type="curve" smooth="yes"/>
      <point x="1031" y="920"/>
      <point x="986" y="825"/>
      <point x="896" y="775" type="curve" smooth="yes"/>
      <point x="887" y="770"/>
      <point x="878" y="765"/>
      <point x="867" y="760" type="curve"/>
      <point x="885" y="753"/>
      <point x="901" y="747"/>
    </contour>
  </outline>
</glyph>
<glyph name="nine" format="1">
  <advance width="1133"/>
  <unicode hex="0039"/>
  <outline>
    <contour>
      <point x="487" y="6" type="curve" smooth="yes"/>
      <point x="315" y="27"/>
      <point x="181" y="90"/>
      <point x="84" y="196" type="curve"/>
      <point x="253" y="380" type="line"/>
      <point x="392" y="285"/>
      <point x="604" y="256"/>
      <point x="717" y="359" type="curve" smooth="yes"/>
      <point x="774" y="410"/>
      <point x="811" y="492"/>
      <point x="828" y="604" type="curve"/>
      <point x="609" y="452"/>
      <point x="295" y="481"/>
      <point x="147" y="677" type="curve" smooth="yes"/>
      <point x="-1" y="872"/>
      <point x="29" y="1218"/>
      <point x="234" y="1392" type="curve" smooth="yes"/>
      <point x="336" y="1479"/>
      <point x="473" y="1513"/>
      <point x="646" y="1496" type="curve"/>
      <point x="949" y="1444"/>
      <point x="1092" y="1238"/>
      <point x="1101" y="835" type="curve"/>
      <point x="1093" y="196"/>
      <point x="832" y="-23"/>
    </contour>
    <contour>
      <point x="561" y="1218" type="curve"/>
      <point x="408" y="1212"/>
      <point x="328" y="1146"/>
      <point x="321" y="1019" type="curve"/>
      <point x="328" y="852"/>
      <point x="411" y="769"/>
      <point x="571" y="769" type="curve" smooth="yes"/>
      <point x="711" y="776"/>
      <point x="788" y="853"/>
      <point x="801" y="1000" type="curve"/>
      <point x="794" y="1139"/>
      <point x="714" y="1212"/>
    </contour>
  </outline>
</glyph>
<glyph name="colon" format="1">
  <advance width="423"/>
  <unicode hex="003A"/>
  <outline>
    <contour>
      <point x="211" y="0" type="curve" smooth="yes"/>
      <point x="304" y="0"/>
      <point x="361" y="60"/>
      <point x="361" y="140" type="curve" smooth="yes"/>
      <point x="361" y="220"/>
      <point x="305" y="281"/>
      <point x="209" y="281" type="curve" smooth="yes"/>
      <point x="118" y="281"/>
      <point x="61" y="220"/>
      <point x="61" y="140" type="curve" smooth="yes"/>
      <point x="61" y="60"/>
      <point x="118" y="0"/>
    </contour>
    <contour>
      <point x="211" y="716" type="curve" smooth="yes"/>
      <point x="304" y="716"/>
      <point x="361" y="776"/>
      <point x="361" y="856" type="curve" smooth="yes"/>
      <point x="361" y="936"/>
      <point x="305" y="997"/>
      <point x="209" y="997" type="curve" smooth="yes"/>
      <point x="118" y="997"/>
      <point x="61" y="936"/>
      <point x="61" y="856" type="curve" smooth="yes"/>
      <point x="61" y="776"/>
      <point x="118" y="716"/>
    </contour>
  </outline>
</glyph>
<glyph name="semicolon" format="1">
  <advance width="427"/>
  <unicode hex="003B"/>
  <outline>
    <contour>
      <point x="210" y="0" type="curve" smooth="yes"/>
      <point x="221" y="0" type="line"/>
      <point x="201" y="-59"/>
      <point x="164" y="-99"/>
      <point x="110" y="-120" type="curve"/>
      <point x="160" y="-210" type="line"/>
      <point x="293" y="-143"/>
      <point x="360" y="-28"/>
      <point x="360" y="133" type="curve" smooth="yes"/>
      <point x="360" y="140" type="line" smooth="yes"/>
      <point x="360" y="220"/>
      <point x="304" y="281"/>
      <point x="208" y="281" type="curve" smooth="yes"/>
      <point x="117" y="281"/>
      <point x="60" y="220"/>
      <point x="60" y="140" type="curve" smooth="yes"/>
      <point x="60" y="60"/>
      <point x="117" y="0"/>
    </contour>
    <contour>
      <point x="215" y="720" type="curve" smooth="yes"/>
      <point x="308" y="720"/>
      <point x="365" y="780"/>
      <point x="365" y="860" type="curve" smooth="yes"/>
      <point x="365" y="940"/>
      <point x="309" y="1001"/>
      <point x="213" y="1001" type="curve" smooth="yes"/>
      <point x="122" y="1001"/>
      <point x="65" y="940"/>
      <point x="65" y="860" type="curve" smooth="yes"/>
      <point x="65" y="780"/>
      <point x="122" y="720"/>
    </contour>
  </outline>
</glyph>
<glyph name="less" format="1">
  <advance width="1018"/>
  <unicode hex="003C"/>
  <outline>
    <contour>
      <point x="28" y="786" type="line"/>
      <point x="976" y="1300" type="line"/>
      <point x="976" y="1070" type="line"/>
      <point x="396" y="750" type="line"/>
      <point x="976" y="430" type="line"/>
      <point x="976" y="200" type="line"/>
      <point x="28" y="721" type="line"/>
    </contour>
  </outline>
</glyph>
<glyph name="equal" format="1">
  <advance width="1031"/>
  <unicode hex="003D"/>
  <outline>
    <contour>
      <point x="964" y="400" type="line"/>
      <point x="64" y="400" type="line"/>
      <point x="64" y="599" type="line"/>
      <point x="964" y="599" type="line"/>
    </contour>
    <contour>
      <point x="964" y="801" type="line"/>
      <point x="64" y="801" type="line"/>
      <point x="64" y="1000" type="line"/>
      <point x="964" y="1000" type="line"/>
    </contour>
  </outline>
</glyph>
<glyph name="greater" format="1">
  <advance width="1018"/>
  <unicode hex="003E"/>
  <outline>
    <contour>
      <point x="622" y="750" type="line"/>
      <point x="42" y="1070" type="line"/>
      <point x="42" y="1300" type="line"/>
      <point x="990" y="786" type="line"/>
      <point x="990" y="721" type="line"/>
      <point x="42" y="200" type="line"/>
      <point x="42" y="430" type="line"/>
    </contour>
  </outline>
</glyph>
<glyph name="question" format="1">
  <advance width="1099"/>
  <unicode hex="003F"/>
  <outline>
    <contour>
      <point x="1068" y="1060" type="curve"/>
      <point x="1055" y="873"/>
      <point x="976" y="723"/>
      <point x="783" y="670" type="curve" smooth="yes"/>
      <point x="686" y="643"/>
      <point x="635" y="553"/>
      <point x="629" y="400" type="curve"/>
      <point x="349" y="400" type="line"/>
      <point x="349" y="653"/>
      <point x="425" y="828"/>
      <point x="642" y="876" type="curve" smooth="yes"/>
      <point x="733" y="892"/>
      <point x="781" y="959"/>
      <point x="784" y="1078" type="curve"/>
      <point x="761" y="1169"/>
      <point x="669" y="1217"/>
      <point x="508" y="1220" type="curve" smooth="yes"/>
      <point x="388" y="1220"/>
      <point x="295" y="1180"/>
      <point x="228" y="1100" type="curve"/>
      <point x="28" y="1300" type="line"/>
      <point x="161" y="1433"/>
      <point x="288" y="1500"/>
      <point x="567" y="1500" type="curve" smooth="yes"/>
      <point x="807" y="1500"/>
      <point x="1068" y="1325"/>
    </contour>
    <contour>
      <point x="499" y="0" type="curve" smooth="yes"/>
      <point x="592" y="0"/>
      <point x="649" y="60"/>
      <point x="649" y="140" type="curve" smooth="yes"/>
      <point x="649" y="220"/>
      <point x="593" y="281"/>
      <point x="497" y="281" type="curve" smooth="yes"/>
      <point x="406" y="281"/>
      <point x="349" y="220"/>
      <point x="349" y="140" type="curve" smooth="yes"/>
      <point x="349" y="60"/>
      <point x="406" y="0"/>
    </contour>
  </outline>
</glyph>
<glyph name="at" format="1">
  <advance width="1980"/>
  <unicode hex="0040"/>
  <outline>
    <contour>
      <point x="729" y="734" type="curve"/>
      <point x="599" y="884" type="line"/>
      <point x="726" y="971"/>
      <point x="879" y="1017"/>
      <point x="1059" y="1024" type="curve" smooth="yes"/>
      <point x="1299" y="1024"/>
      <point x="1449" y="891"/>
      <point x="1449" y="624" type="curve" smooth="yes"/>
      <point x="1449" y="232" type="line"/>
      <point x="1597" y="84"/>
      <point x="1694" y="353"/>
      <point x="1683" y="541" type="curve" smooth="yes"/>
      <point x="1679" y="949"/>
      <point x="1471" y="1249"/>
      <point x="991" y="1250" type="curve" smooth="yes"/>
      <point x="534" y="1250"/>
      <point x="304" y="939"/>
      <point x="293" y="543" type="curve"/>
      <point x="304" y="-2"/>
      <point x="597" y="-240"/>
      <point x="1390" y="-200" type="curve"/>
      <point x="1390" y="-400" type="line"/>
      <point x="350" y="-440"/>
      <point x="53" y="-58"/>
      <point x="40" y="546" type="curve" smooth="yes"/>
      <point x="40" y="991"/>
      <point x="351" y="1450"/>
      <point x="991" y="1450" type="curve" smooth="yes"/>
      <point x="1630" y="1450"/>
      <point x="1924" y="1059"/>
      <point x="1941" y="538" type="curve"/>
      <point x="1914" y="172"/>
      <point x="1798" y="-34"/>
      <point x="1591" y="-80" type="curve"/>
      <point x="1408" y="-87"/>
      <point x="1268" y="-26"/>
      <point x="1169" y="104" type="curve"/>
      <point x="1088" y="51"/>
      <point x="1014" y="24"/>
      <point x="949" y="24" type="curve" smooth="yes"/>
      <point x="682" y="24"/>
      <point x="549" y="144"/>
      <point x="549" y="344" type="curve" smooth="yes"/>
      <point x="549" y="531"/>
      <point x="668" y="704"/>
      <point x="949" y="704" type="curve" smooth="yes"/>
      <point x="1014" y="704"/>
      <point x="1087" y="684"/>
      <point x="1169" y="644" type="curve"/>
      <point x="1169" y="674" type="line" smooth="yes"/>
      <point x="1168" y="747"/>
      <point x="1114" y="787"/>
      <point x="1009" y="794" type="curve"/>
      <point x="889" y="794"/>
      <point x="796" y="774"/>
    </contour>
    <contour>
      <point x="1169" y="324" type="curve"/>
      <point x="1169" y="437" type="line"/>
      <point x="1142" y="488"/>
      <point x="1079" y="514"/>
      <point x="979" y="514" type="curve"/>
      <point x="859" y="501"/>
      <point x="796" y="454"/>
      <point x="789" y="374" type="curve"/>
      <point x="796" y="295"/>
      <point x="859" y="252"/>
      <point x="979" y="245" type="curve"/>
      <point x="1079" y="245"/>
      <point x="1142" y="271"/>
    </contour>
  </outline>
</glyph>
<glyph name="A" format="1">
  <advance width="1502"/>
  <unicode hex="0041"/>
  <outline>
    <contour>
      <point x="410" y="230" type="line"/>
      <point x="320" y="0" type="line"/>
      <point x="0" y="0" type="line"/>
      <point x="600" y="1500" type="line"/>
      <point x="900" y="1500" type="line"/>
      <point x="1499" y="1" type="line"/>
      <point x="1180" y="0" type="line"/>
      <point x="1090" y="230" type="line"/>
    </contour>
    <contour>
      <point x="530" y="530" type="line"/>
      <point x="980" y="530" type="line"/>
      <point x="758" y="1100" type="line"/>
    </contour>
  </outline>
</glyph>
<glyph name="B" format="1">
  <advance width="1385"/>
  <unicode hex="0042"/>
  <outline>
    <contour>
      <point x="782" y="898" type="curve" smooth="yes"/>
      <point x="362" y="898" type="line"/>
      <point x="362" y="1201" type="line"/>
      <point x="785" y="1201" type="line" smooth="yes"/>
      <point x="904" y="1197"/>
      <point x="965" y="1158"/>
      <point x="968" y="1085" type="curve"/>
      <point x="965" y="962"/>
      <point x="903" y="900"/>
    </contour>
    <contour>
      <point x="852" y="234" type="curve" smooth="yes"/>
      <point x="362" y="234" type="line"/>
      <point x="362" y="601" type="line"/>
      <point x="855" y="601" type="line" smooth="yes"/>
      <point x="994" y="597"/>
      <point x="1065" y="547"/>
      <point x="1068" y="451" type="curve"/>
      <point x="1065" y="308"/>
      <point x="993" y="236"/>
    </contour>
    <contour>
      <point x="857" y="1499" type="curve"/>
      <point x="61" y="1499" type="line"/>
      <point x="61" y="0" type="line"/>
      <point x="905" y="-1" type="line"/>
      <point x="1194" y="16"/>
      <point x="1345" y="165"/>
      <point x="1358" y="448" type="curve"/>
      <point x="1350" y="589"/>
      <point x="1280" y="703"/>
      <point x="1149" y="791" type="curve"/>
      <point x="1216" y="836"/>
      <point x="1252" y="925"/>
      <point x="1257" y="1058" type="curve"/>
      <point x="1243" y="1337"/>
      <point x="1110" y="1484"/>
    </contour>
  </outline>
</glyph>
<glyph name="C" format="1">
  <advance width="1336"/>
  <unicode hex="0043"/>
  <outline>
    <contour>
      <point x="19" y="753" type="curve" smooth="yes"/>
      <point x="20" y="1174"/>
      <point x="344" y="1500"/>
      <point x="768" y="1500" type="curve" smooth="yes"/>
      <point x="982" y="1500"/>
      <point x="1166" y="1433"/>
      <point x="1319" y="1300" type="curve"/>
      <point x="1119" y="1081" type="line"/>
      <point x="915" y="1241"/>
      <point x="607" y="1242"/>
      <point x="443" y="1075" type="curve" smooth="yes"/>
      <point x="278" y="908"/>
      <point x="279" y="587"/>
      <point x="444" y="423" type="curve" smooth="yes"/>
      <point x="527" y="341"/>
      <point x="635" y="300"/>
      <point x="770" y="300" type="curve" smooth="yes"/>
      <point x="905" y="300"/>
      <point x="1021" y="340"/>
      <point x="1119" y="419" type="curve"/>
      <point x="1319" y="200" type="line"/>
      <point x="1166" y="67"/>
      <point x="983" y="0"/>
      <point x="768" y="0" type="curve" smooth="yes"/>
      <point x="344" y="1"/>
      <point x="19" y="322"/>
    </contour>
  </outline>
</glyph>
<glyph name="D" format="1">
  <advance width="1370"/>
  <unicode hex="0044"/>
  <outline>
    <contour>
      <point x="639" y="299" type="curve" smooth="yes"/>
      <point x="361" y="299" type="line"/>
      <point x="361" y="1200" type="line"/>
      <point x="639" y="1200" type="line" smooth="yes"/>
      <point x="905" y="1200"/>
      <point x="1038" y="1050"/>
      <point x="1039" y="750" type="curve"/>
      <point x="1038" y="450"/>
      <point x="905" y="300"/>
    </contour>
    <contour>
      <point x="61" y="1501" type="line"/>
      <point x="61" y="0" type="line"/>
      <point x="639" y="0" type="line" smooth="yes"/>
      <point x="1106" y="0"/>
      <point x="1339" y="250"/>
      <point x="1339" y="750" type="curve" smooth="yes"/>
      <point x="1339" y="1251"/>
      <point x="1106" y="1501"/>
      <point x="639" y="1501" type="curve" smooth="yes"/>
    </contour>
  </outline>
</glyph>
<glyph name="E" format="1">
  <advance width="1200"/>
  <unicode hex="0045"/>
  <outline>
    <contour>
      <point x="1161" y="280" type="line"/>
      <point x="1161" y="0" type="line"/>
      <point x="61" y="0" type="line"/>
      <point x="61" y="1499" type="line"/>
      <point x="1163" y="1500" type="line"/>
      <point x="1163" y="1220" type="line"/>
      <point x="361" y="1220" type="line"/>
      <point x="361" y="900" type="line"/>
      <point x="962" y="900" type="line"/>
      <point x="962" y="621" type="line"/>
      <point x="361" y="621" type="line"/>
      <point x="361" y="280" type="line"/>
    </contour>
  </outline>
</glyph>
<glyph name="F" format="1">
  <advance width="1128"/>
  <unicode hex="0046"/>
  <outline>
    <contour>
      <point x="361" y="621" type="line"/>
      <point x="361" y="0" type="line"/>
      <point x="61" y="0" type="line"/>
      <point x="61" y="1500" type="line"/>
      <point x="1116" y="1500" type="line"/>
      <point x="1116" y="1220" type="line"/>
      <point x="361" y="1220" type="line"/>
      <point x="361" y="900" type="line"/>
      <point x="918" y="900" type="line"/>
      <point x="918" y="621" type="line"/>
    </contour>
  </outline>
</glyph>
<glyph name="G" format="1">
  <advance width="1366"/>
  <unicode hex="0047"/>
  <outline>
    <contour>
      <point x="19" y="753" type="curve" smooth="yes"/>
      <point x="20" y="1174"/>
      <point x="344" y="1500"/>
      <point x="768" y="1500" type="curve" smooth="yes"/>
      <point x="982" y="1500"/>
      <point x="1166" y="1433"/>
      <point x="1319" y="1300" type="curve"/>
      <point x="1119" y="1081" type="line"/>
      <point x="915" y="1241"/>
      <point x="607" y="1242"/>
      <point x="443" y="1075" type="curve" smooth="yes"/>
      <point x="278" y="908"/>
      <point x="279" y="587"/>
      <point x="444" y="423" type="curve" smooth="yes"/>
      <point x="527" y="341"/>
      <point x="635" y="300"/>
      <point x="770" y="300" type="curve" smooth="yes"/>
      <point x="878" y="300"/>
      <point x="961" y="321"/>
      <point x="1019" y="364" type="curve"/>
      <point x="1019" y="621" type="line"/>
      <point x="819" y="620" type="line"/>
      <point x="819" y="900" type="line"/>
      <point x="1319" y="900" type="line"/>
      <point x="1319" y="200" type="line"/>
      <point x="1166" y="67"/>
      <point x="983" y="0"/>
      <point x="768" y="0" type="curve" smooth="yes"/>
      <point x="344" y="1"/>
      <point x="19" y="322"/>
    </contour>
  </outline>
</glyph>
<glyph name="H" format="1">
  <advance width="1422"/>
  <unicode hex="0048"/>
  <outline>
    <contour>
      <point x="361" y="620" type="line"/>
      <point x="361" y="0" type="line"/>
      <point x="61" y="0" type="line"/>
      <point x="61" y="1500" type="line"/>
      <point x="361" y="1500" type="line"/>
      <point x="361" y="900" type="line"/>
      <point x="1060" y="900" type="line"/>
      <point x="1060" y="1501" type="line"/>
      <point x="1360" y="1501" type="line"/>
      <point x="1360" y="1" type="line"/>
      <point x="1060" y="0" type="line"/>
      <point x="1060" y="620" type="line"/>
    </contour>
  </outline>
</glyph>
<glyph name="J" format="1">
  <advance width="673"/>
  <unicode hex="004A"/>
  <outline>
    <contour>
      <point x="17" y="0" type="line"/>
      <point x="17" y="280" type="line"/>
      <point x="116" y="280" type="line" smooth="yes"/>
      <point x="250" y="286"/>
      <point x="317" y="359"/>
      <point x="317" y="499" type="curve" smooth="yes"/>
      <point x="317" y="1500" type="line"/>
      <point x="618" y="1500" type="line"/>
      <point x="617" y="399" type="line"/>
      <point x="617" y="160"/>
      <point x="456" y="0"/>
      <point x="219" y="0" type="curve" smooth="yes"/>
    </contour>
  </outline>
</glyph>
<glyph name="K" format="1">
  <advance width="1317"/>
  <unicode hex="004B"/>
  <outline>
    <contour>
      <point x="361" y="0" type="line"/>
      <point x="61" y="0" type="line"/>
      <point x="61" y="1500" type="line"/>
      <point x="361" y="1500" type="line"/>
      <point x="361" y="900" type="line"/>
      <point x="861" y="1500" type="line"/>
      <point x="1198" y="1500" type="line"/>
      <point x="611" y="800" type="line"/>
      <point x="1321" y="0" type="line"/>
      <point x="931" y="0" type="line"/>
      <point x="361" y="648" type="line"/>
    </contour>
  </outline>
</glyph>
<glyph name="L" format="1">
  <advance width="1181"/>
  <unicode hex="004C"/>
  <outline>
    <contour>
      <point x="361" y="280" type="line"/>
      <point x="361" y="1500" type="line"/>
      <point x="61" y="1500" type="line"/>
      <point x="61" y="0" type="line"/>
      <point x="1161" y="0" type="line"/>
      <point x="1161" y="280" type="line"/>
    </contour>
  </outline>
</glyph>
<glyph name="M" format="1">
  <advance width="1624"/>
  <unicode hex="004D"/>
  <outline>
    <contour>
      <point x="361" y="870" type="line"/>
      <point x="361" y="0" type="line"/>
      <point x="61" y="0" type="line"/>
      <point x="61" y="1500" type="line"/>
      <point x="161" y="1500" type="line"/>
      <point x="811" y="760" type="line"/>
      <point x="1462" y="1500" type="line"/>
      <point x="1562" y="1500" type="line"/>
      <point x="1562" y="0" type="line"/>
      <point x="1262" y="0" type="line"/>
      <point x="1261" y="870" type="line"/>
      <point x="811" y="370" type="line"/>
    </contour>
  </outline>
</glyph>
<glyph name="N" format="1">
  <advance width="1463"/>
  <unicode hex="004E"/>
  <outline>
    <contour>
      <point x="361" y="930" type="line"/>
      <point x="361" y="0" type="line"/>
      <point x="61" y="0" type="line"/>
      <point x="61" y="1500" type="line"/>
      <point x="161" y="1500" type="line"/>
      <point x="1101" y="560" type="line"/>
      <point x="1101" y="1500" type="line"/>
      <point x="1401" y="1500" type="line"/>
      <point x="1401" y="0" type="line"/>
      <point x="1291" y="0" type="line"/>
    </contour>
  </outline>
</glyph>
<glyph name="O" format="1">
  <advance width="1543"/>
  <unicode hex="004F"/>
  <outline>
    <contour>
      <point x="19" y="750" type="curve" smooth="yes"/>
      <point x="19" y="1177"/>
      <point x="342" y="1500"/>
      <point x="769" y="1500" type="curve" smooth="yes"/>
      <point x="1196" y="1500"/>
      <point x="1519" y="1177"/>
      <point x="1519" y="750" type="curve" smooth="yes"/>
      <point x="1519" y="323"/>
      <point x="1196" y="0"/>
      <point x="769" y="0" type="curve" smooth="yes"/>
      <point x="342" y="0"/>
      <point x="19" y="325"/>
    </contour>
    <contour>
      <point x="1219" y="750" type="curve" smooth="yes"/>
      <point x="1219" y="1017"/>
      <point x="1036" y="1220"/>
      <point x="768" y="1220" type="curve" smooth="yes"/>
      <point x="503" y="1220"/>
      <point x="319" y="1017"/>
      <point x="319" y="750" type="curve" smooth="yes"/>
      <point x="319" y="483"/>
      <point x="502" y="280"/>
      <point x="770" y="280" type="curve" smooth="yes"/>
      <point x="1035" y="280"/>
      <point x="1219" y="483"/>
    </contour>
  </outline>
</glyph>
<glyph name="P" format="1">
  <advance width="1261"/>
  <unicode hex="0050"/>
  <outline>
    <contour>
      <point x="361" y="620" type="line"/>
      <point x="361" y="0" type="line"/>
      <point x="61" y="0" type="line"/>
      <point x="61" y="1500" type="line"/>
      <point x="715" y="1500" type="line" smooth="yes"/>
      <point x="1065" y="1500"/>
      <point x="1240" y="1356"/>
      <point x="1240" y="1068" type="curve" smooth="yes"/>
      <point x="1240" y="769"/>
      <point x="1065" y="620"/>
      <point x="716" y="620" type="curve" smooth="yes"/>
    </contour>
    <contour>
      <point x="784" y="1219" type="curve" smooth="yes"/>
      <point x="361" y="1219" type="line"/>
      <point x="361" y="900" type="line"/>
      <point x="781" y="900" type="line" smooth="yes"/>
      <point x="902" y="902"/>
      <point x="964" y="957"/>
      <point x="967" y="1065" type="curve"/>
      <point x="964" y="1164"/>
      <point x="903" y="1215"/>
    </contour>
  </outline>
</glyph>
<glyph name="Q" format="1">
  <advance width="1551"/>
  <unicode hex="0051"/>
  <outline>
    <contour>
      <point x="810" y="450" type="line"/>
      <point x="1048" y="633" type="line"/>
      <point x="1154" y="495" type="line"/>
      <point x="1197" y="569"/>
      <point x="1219" y="654"/>
      <point x="1219" y="750" type="curve" smooth="yes"/>
      <point x="1219" y="1017"/>
      <point x="1036" y="1220"/>
      <point x="768" y="1220" type="curve" smooth="yes"/>
      <point x="503" y="1220"/>
      <point x="319" y="1017"/>
      <point x="319" y="750" type="curve" smooth="yes"/>
      <point x="319" y="483"/>
      <point x="502" y="280"/>
      <point x="770" y="280" type="curve" smooth="yes"/>
      <point x="825" y="280"/>
      <point x="876" y="288"/>
      <point x="923" y="303" type="curve"/>
    </contour>
    <contour>
      <point x="1468" y="88" type="line"/>
      <point x="1230" y="-95" type="line"/>
      <point x="1102" y="71" type="line"/>
      <point x="1003" y="24"/>
      <point x="892" y="0"/>
      <point x="769" y="0" type="curve" smooth="yes"/>
      <point x="342" y="0"/>
      <point x="19" y="325"/>
      <point x="19" y="750" type="curve" smooth="yes"/>
      <point x="19" y="1177"/>
      <point x="342" y="1500"/>
      <point x="769" y="1500" type="curve" smooth="yes"/>
      <point x="1196" y="1500"/>
      <point x="1519" y="1177"/>
      <point x="1519" y="750" type="curve" smooth="yes"/>
      <point x="1519" y="555"/>
      <point x="1459" y="390"/>
      <point x="1340" y="254" type="curve"/>
    </contour>
  </outline>
</glyph>
<glyph name="R" format="1">
  <advance width="1351"/>
  <unicode hex="0052"/>
  <outline>
    <contour>
      <point x="784" y="1219" type="curve" smooth="yes"/>
      <point x="361" y="1219" type="line"/>
      <point x="361" y="900" type="line"/>
      <point x="781" y="900" type="line" smooth="yes"/>
      <point x="902" y="902"/>
      <point x="964" y="957"/>
      <point x="967" y="1065" type="curve"/>
      <point x="964" y="1164"/>
      <point x="903" y="1215"/>
    </contour>
    <contour>
      <point x="964" y="654" type="curve"/>
      <point x="1338" y="0" type="line"/>
      <point x="994" y="0" type="line"/>
      <point x="635" y="620" type="line"/>
      <point x="361" y="620" type="line"/>
      <point x="361" y="0" type="line"/>
      <point x="61" y="0" type="line"/>
      <point x="61" y="1500" type="line"/>
      <point x="715" y="1500" type="line" smooth="yes"/>
      <point x="1065" y="1500"/>
      <point x="1240" y="1356"/>
      <point x="1240" y="1068" type="curve" smooth="yes"/>
      <point x="1240" y="851"/>
      <point x="1148" y="713"/>
    </contour>
  </outline>
</glyph>
<glyph name="S" format="1">
  <advance width="1183"/>
  <unicode hex="0053"/>
  <outline>
    <contour>
      <point x="1137" y="1300" type="curve"/>
      <point x="937" y="1100" type="line"/>
      <point x="870" y="1180"/>
      <point x="777" y="1220"/>
      <point x="657" y="1220" type="curve" smooth="yes"/>
      <point x="417" y="1220"/>
      <point x="360" y="1070"/>
      <point x="427" y="990" type="curve" smooth="yes"/>
      <point x="460" y="950"/>
      <point x="537" y="920"/>
      <point x="657" y="900" type="curve"/>
      <point x="910" y="873"/>
      <point x="1157" y="747"/>
      <point x="1157" y="440" type="curve" smooth="yes"/>
      <point x="1157" y="200"/>
      <point x="899" y="0"/>
      <point x="606" y="0" type="curve" smooth="yes"/>
      <point x="327" y="0"/>
      <point x="150" y="87"/>
      <point x="17" y="220" type="curve"/>
      <point x="217" y="420" type="line"/>
      <point x="284" y="340"/>
      <point x="397" y="293"/>
      <point x="557" y="280" type="curve"/>
      <point x="824" y="280"/>
      <point x="873" y="422"/>
      <point x="807" y="535" type="curve" smooth="yes"/>
      <point x="774" y="592"/>
      <point x="690" y="627"/>
      <point x="557" y="640" type="curve" smooth="yes"/>
      <point x="317" y="667"/>
      <point x="77" y="767"/>
      <point x="77" y="1060" type="curve" smooth="yes"/>
      <point x="77" y="1325"/>
      <point x="358" y="1500"/>
      <point x="598" y="1500" type="curve" smooth="yes"/>
      <point x="877" y="1500"/>
      <point x="1004" y="1433"/>
    </contour>
  </outline>
</glyph>
<glyph name="T" format="1">
  <advance width="1274"/>
  <unicode hex="0054"/>
  <outline>
    <contour>
      <point x="1285" y="1220" type="line"/>
      <point x="1285" y="1500" type="line"/>
      <point x="-15" y="1500" type="line"/>
      <point x="-15" y="1220" type="line"/>
      <point x="485" y="1220" type="line"/>
      <point x="485" y="0" type="line"/>
      <point x="785" y="0" type="line"/>
      <point x="785" y="1220" type="line"/>
    </contour>
  </outline>
</glyph>
<glyph name="U" format="1">
  <advance width="1397"/>
  <unicode hex="0055"/>
  <outline>
    <contour>
      <point x="347" y="630" type="curve" smooth="yes"/>
      <point x="347" y="1500" type="line"/>
      <point x="47" y="1500" type="line"/>
      <point x="47" y="550" type="line" smooth="yes"/>
      <point x="47" y="243"/>
      <point x="324" y="0"/>
      <point x="697" y="0" type="curve" smooth="yes"/>
      <point x="1070" y="0"/>
      <point x="1347" y="243"/>
      <point x="1347" y="550" type="curve" smooth="yes"/>
      <point x="1347" y="1500" type="line"/>
      <point x="1047" y="1500" type="line"/>
      <point x="1047" y="630" type="line" smooth="yes"/>
      <point x="1047" y="403"/>
      <point x="897" y="300"/>
      <point x="697" y="300" type="curve" smooth="yes"/>
      <point x="497" y="300"/>
      <point x="347" y="403"/>
    </contour>
  </outline>
</glyph>
<glyph name="V" format="1">
  <advance width="1479"/>
  <unicode hex="0056"/>
  <outline>
    <contour>
      <point x="734" y="401" type="line"/>
      <point x="308" y="1500" type="line"/>
      <point x="-12" y="1500" type="line"/>
      <point x="589" y="0" type="line"/>
      <point x="889" y="0" type="line"/>
      <point x="1488" y="1500" type="line"/>
      <point x="1168" y="1500" type="line"/>
    </contour>
  </outline>
</glyph>
<glyph name="W" format="1">
  <advance width="2009"/>
  <unicode hex="0057"/>
  <outline>
    <contour>
      <point x="704" y="0" type="line"/>
      <point x="1004" y="1100" type="line"/>
      <point x="1304" y="0" type="line"/>
      <point x="1604" y="0" type="line"/>
      <point x="2004" y="1500" type="line"/>
      <point x="1684" y="1500" type="line"/>
      <point x="1424" y="480" type="line"/>
      <point x="1164" y="1500" type="line"/>
      <point x="854" y="1500" type="line"/>
      <point x="584" y="480" type="line"/>
      <point x="323" y="1500" type="line"/>
      <point x="3" y="1500" type="line"/>
      <point x="404" y="0" type="line"/>
    </contour>
  </outline>
</glyph>
<glyph name="X" format="1">
  <advance width="1510"/>
  <unicode hex="0058"/>
  <outline>
    <contour>
      <point x="363" y="0" type="line"/>
      <point x="7" y="0" type="line"/>
      <point x="580" y="781" type="line"/>
      <point x="55" y="1500" type="line"/>
      <point x="407" y="1500" type="line"/>
      <point x="757" y="1023" type="line"/>
      <point x="1107" y="1500" type="line"/>
      <point x="1459" y="1500" type="line"/>
      <point x="934" y="781" type="line"/>
      <point x="1507" y="0" type="line"/>
      <point x="1151" y="0" type="line"/>
      <point x="757" y="539" type="line"/>
    </contour>
  </outline>
</glyph>
<glyph name="Y" format="1">
  <advance width="1338"/>
  <unicode hex="0059"/>
  <outline>
    <contour>
      <point x="517" y="0" type="line"/>
      <point x="517" y="750" type="line"/>
      <point x="-33" y="1500" type="line"/>
      <point x="319" y="1500" type="line"/>
      <point x="667" y="1010" type="line"/>
      <point x="1023" y="1500" type="line"/>
      <point x="1367" y="1500" type="line"/>
      <point x="817" y="750" type="line"/>
      <point x="817" y="0" type="line"/>
    </contour>
  </outline>
</glyph>
<glyph name="Z" format="1">
  <advance width="1262"/>
  <unicode hex="005A"/>
  <outline>
    <contour>
      <point x="528" y="280" type="line"/>
      <point x="1230" y="280" type="line"/>
      <point x="1230" y="0" type="line"/>
      <point x="29" y="0" type="line"/>
      <point x="30" y="100" type="line"/>
      <point x="729" y="1220" type="line"/>
      <point x="30" y="1220" type="line"/>
      <point x="29" y="1500" type="line"/>
      <point x="1230" y="1500" type="line"/>
      <point x="1230" y="1390" type="line"/>
    </contour>
  </outline>
</glyph>
<glyph name="bracketleft" format="1">
  <advance width="590"/>
  <unicode hex="005B"/>
  <outline>
    <contour>
      <point x="562" y="-130" type="line"/>
      <point x="562" y="-400" type="line"/>
      <point x="61" y="-400" type="line"/>
      <point x="61" y="1899" type="line"/>
      <point x="341" y="1899" type="line"/>
      <point x="562" y="1900" type="line"/>
      <point x="563" y="1630" type="line"/>
      <point x="341" y="1630" type="line"/>
      <point x="341" y="-130" type="line"/>
    </contour>
  </outline>
</glyph>
<glyph name="backslash" format="1">
  <advance width="800"/>
  <unicode hex="005C"/>
  <outline>
    <contour>
      <point x="772" y="-60" type="line"/>
      <point x="577" y="-60" type="line"/>
      <point x="29" y="1444" type="line"/>
      <point x="224" y="1444" type="line"/>
    </contour>
  </outline>
</glyph>
<glyph name="bracketright" format="1">
  <advance width="592"/>
  <unicode hex="005D"/>
  <outline>
    <contour>
      <point x="529" y="1899" type="line"/>
      <point x="529" y="-400" type="line"/>
      <point x="28" y="-400" type="line"/>
      <point x="28" y="-130" type="line"/>
      <point x="249" y="-130" type="line"/>
      <point x="249" y="1630" type="line"/>
      <point x="27" y="1630" type="line"/>
      <point x="28" y="1900" type="line"/>
      <point x="249" y="1899" type="line"/>
    </contour>
  </outline>
</glyph>
<glyph name="underscore" format="1">
  <advance width="1120"/>
  <unicode hex="005F"/>
  <outline>
    <contour>
      <point x="1072" y="-200" type="line"/>
      <point x="48" y="-200" type="line"/>
      <point x="48" y="-100" type="line"/>
      <point x="1072" y="-100" type="line"/>
    </contour>
  </outline>
</glyph>
<glyph name="a" format="1">
  <advance width="974"/>
  <unicode hex="0061"/>
  <outline>
    <contour>
      <point x="207" y="710" type="curve"/>
      <point x="97" y="880" type="line"/>
      <point x="224" y="960"/>
      <point x="370" y="1000"/>
      <point x="537" y="1000" type="curve" smooth="yes"/>
      <point x="777" y="1000"/>
      <point x="927" y="867"/>
      <point x="927" y="600" type="curve" smooth="yes"/>
      <point x="927" y="0" type="line"/>
      <point x="647" y="0" type="line"/>
      <point x="647" y="80" type="line"/>
      <point x="566" y="27"/>
      <point x="492" y="0"/>
      <point x="427" y="0" type="curve" smooth="yes"/>
      <point x="160" y="0"/>
      <point x="27" y="120"/>
      <point x="27" y="320" type="curve" smooth="yes"/>
      <point x="27" y="507"/>
      <point x="146" y="680"/>
      <point x="427" y="680" type="curve" smooth="yes"/>
      <point x="492" y="680"/>
      <point x="565" y="660"/>
      <point x="647" y="620" type="curve"/>
      <point x="647" y="650" type="line" smooth="yes"/>
      <point x="646" y="723"/>
      <point x="592" y="763"/>
      <point x="487" y="770" type="curve"/>
      <point x="367" y="770"/>
      <point x="274" y="750"/>
    </contour>
    <contour>
      <point x="647" y="300" type="curve"/>
      <point x="647" y="413" type="line"/>
      <point x="620" y="464"/>
      <point x="557" y="490"/>
      <point x="457" y="490" type="curve"/>
      <point x="337" y="477"/>
      <point x="274" y="430"/>
      <point x="267" y="350" type="curve"/>
      <point x="274" y="271"/>
      <point x="337" y="228"/>
      <point x="457" y="221" type="curve"/>
      <point x="557" y="221"/>
      <point x="620" y="247"/>
    </contour>
  </outline>
</glyph>
<glyph name="b" format="1">
  <advance width="1080"/>
  <unicode hex="0062"/>
  <outline>
    <contour>
      <point x="61" y="0" type="line"/>
      <point x="61" y="1499" type="line"/>
      <point x="341" y="1500" type="line"/>
      <point x="341" y="919" type="line"/>
      <point x="388" y="966"/>
      <point x="461" y="993"/>
      <point x="561" y="1000" type="curve"/>
      <point x="868" y="1000"/>
      <point x="1061" y="767"/>
      <point x="1061" y="500" type="curve" smooth="yes"/>
      <point x="1061" y="233"/>
      <point x="868" y="0"/>
      <point x="561" y="0" type="curve" smooth="yes"/>
      <point x="489" y="0"/>
      <point x="416" y="27"/>
      <point x="341" y="80" type="curve"/>
      <point x="341" y="0" type="line"/>
    </contour>
    <contour>
      <point x="341" y="572" type="curve"/>
      <point x="341" y="410" type="line"/>
      <point x="354" y="310"/>
      <point x="424" y="250"/>
      <point x="551" y="230" type="curve"/>
      <point x="724" y="237"/>
      <point x="814" y="333"/>
      <point x="821" y="520" type="curve"/>
      <point x="801" y="673"/>
      <point x="711" y="756"/>
      <point x="551" y="769" type="curve"/>
      <point x="424" y="750"/>
      <point x="354" y="684"/>
    </contour>
  </outline>
</glyph>
<glyph name="c" format="1">
  <advance width="942"/>
  <unicode hex="0063"/>
  <outline>
    <contour>
      <point x="25" y="450" type="curve" smooth="yes"/>
      <point x="25" y="550" type="line" smooth="yes"/>
      <point x="25" y="817"/>
      <point x="258" y="1000"/>
      <point x="526" y="1000" type="curve" smooth="yes"/>
      <point x="686" y="1000"/>
      <point x="819" y="943"/>
      <point x="925" y="830" type="curve"/>
      <point x="725" y="680" type="line"/>
      <point x="665" y="740"/>
      <point x="598" y="770"/>
      <point x="525" y="770" type="curve" smooth="yes"/>
      <point x="392" y="770"/>
      <point x="275" y="647"/>
      <point x="275" y="500" type="curve" smooth="yes"/>
      <point x="275" y="353"/>
      <point x="378" y="230"/>
      <point x="525" y="230" type="curve" smooth="yes"/>
      <point x="598" y="230"/>
      <point x="665" y="260"/>
      <point x="725" y="320" type="curve"/>
      <point x="925" y="170" type="line"/>
      <point x="818" y="57"/>
      <point x="685" y="0"/>
      <point x="525" y="0" type="curve" smooth="yes"/>
      <point x="258" y="0"/>
      <point x="25" y="183"/>
    </contour>
  </outline>
</glyph>
<glyph name="d" format="1">
  <advance width="1078"/>
  <unicode hex="0064"/>
  <outline>
    <contour>
      <point x="736" y="919" type="curve"/>
      <point x="736" y="1500" type="line"/>
      <point x="1016" y="1499" type="line"/>
      <point x="1016" y="0" type="line"/>
      <point x="736" y="0" type="line"/>
      <point x="736" y="80" type="line"/>
      <point x="661" y="27"/>
      <point x="588" y="0"/>
      <point x="516" y="0" type="curve" smooth="yes"/>
      <point x="209" y="0"/>
      <point x="16" y="233"/>
      <point x="16" y="500" type="curve" smooth="yes"/>
      <point x="16" y="767"/>
      <point x="209" y="1000"/>
      <point x="516" y="1000" type="curve"/>
      <point x="616" y="993"/>
      <point x="689" y="966"/>
    </contour>
    <contour>
      <point x="736" y="410" type="curve"/>
      <point x="736" y="572" type="line"/>
      <point x="723" y="684"/>
      <point x="653" y="750"/>
      <point x="526" y="769" type="curve"/>
      <point x="366" y="756"/>
      <point x="276" y="673"/>
      <point x="256" y="520" type="curve"/>
      <point x="263" y="333"/>
      <point x="353" y="237"/>
      <point x="526" y="230" type="curve"/>
      <point x="653" y="250"/>
      <point x="723" y="310"/>
    </contour>
  </outline>
</glyph>
<glyph name="e" format="1">
  <advance width="1029"/>
  <unicode hex="0065"/>
  <outline>
    <contour>
      <point x="523" y="1000" type="curve" smooth="yes"/>
      <point x="816" y="1000"/>
      <point x="1003" y="793"/>
      <point x="1003" y="500" type="curve" smooth="yes"/>
      <point x="1003" y="400" type="line"/>
      <point x="313" y="400" type="line"/>
      <point x="326" y="293"/>
      <point x="416" y="230"/>
      <point x="523" y="230" type="curve" smooth="yes"/>
      <point x="616" y="230"/>
      <point x="700" y="257"/>
      <point x="773" y="310" type="curve"/>
      <point x="933" y="150" type="line"/>
      <point x="860" y="50"/>
      <point x="723" y="0"/>
      <point x="523" y="0" type="curve" smooth="yes"/>
      <point x="230" y="0"/>
      <point x="23" y="207"/>
      <point x="23" y="500" type="curve" smooth="yes"/>
      <point x="23" y="793"/>
      <point x="230" y="1000"/>
    </contour>
    <contour>
      <point x="323" y="600" type="curve"/>
      <point x="723" y="600" type="line"/>
      <point x="723" y="707"/>
      <point x="630" y="770"/>
      <point x="523" y="770" type="curve" smooth="yes"/>
      <point x="416" y="770"/>
      <point x="323" y="707"/>
    </contour>
  </outline>
</glyph>
<glyph name="f" format="1">
  <advance width="811"/>
  <unicode hex="0066"/>
  <outline>
    <contour>
      <point x="450" y="800" type="line"/>
      <point x="450" y="0" type="line"/>
      <point x="169" y="0" type="line"/>
      <point x="169" y="800" type="line"/>
      <point x="19" y="800" type="line"/>
      <point x="19" y="1026" type="line"/>
      <point x="169" y="1026" type="line"/>
      <point x="169" y="1160" type="line" smooth="yes"/>
      <point x="169" y="1360"/>
      <point x="312" y="1500"/>
      <point x="539" y="1500" type="curve" smooth="yes"/>
      <point x="659" y="1500"/>
      <point x="752" y="1467"/>
      <point x="819" y="1400" type="curve"/>
      <point x="670" y="1234" type="line"/>
      <point x="651" y="1255"/>
      <point x="618" y="1265"/>
      <point x="570" y="1265" type="curve" smooth="yes"/>
      <point x="499" y="1265"/>
      <point x="450" y="1227"/>
      <point x="450" y="1120" type="curve" smooth="yes"/>
      <point x="450" y="1026" type="line"/>
      <point x="600" y="1026" type="line"/>
      <point x="600" y="800" type="line"/>
    </contour>
  </outline>
</glyph>
<glyph name="g" format="1">
  <advance width="1081"/>
  <unicode hex="0067"/>
  <outline>
    <contour>
      <point x="747" y="909" type="curve"/>
      <point x="747" y="1000" type="line"/>
      <point x="1027" y="970" type="line"/>
      <point x="1027" y="80" type="line" smooth="yes"/>
      <point x="1027" y="-200"/>
      <point x="840" y="-409"/>
      <point x="587" y="-420" type="curve"/>
      <point x="527" y="-426" type="line"/>
      <point x="334" y="-422"/>
      <point x="184" y="-367"/>
      <point x="77" y="-260" type="curve"/>
      <point x="207" y="-110" type="line"/>
      <point x="280" y="-163"/>
      <point x="369" y="-193"/>
      <point x="474" y="-200" type="curve"/>
      <point x="687" y="-200"/>
      <point x="747" y="-80"/>
      <point x="747" y="40" type="curve" smooth="yes"/>
      <point x="747" y="90" type="line"/>
      <point x="672" y="30"/>
      <point x="586" y="0"/>
      <point x="487" y="0" type="curve" smooth="yes"/>
      <point x="180" y="0"/>
      <point x="27" y="193"/>
      <point x="27" y="500" type="curve" smooth="yes"/>
      <point x="27" y="793"/>
      <point x="200" y="1000"/>
      <point x="507" y="1000" type="curve"/>
      <point x="620" y="993"/>
      <point x="700" y="963"/>
    </contour>
    <contour>
      <point x="747" y="410" type="curve"/>
      <point x="747" y="572" type="line"/>
      <point x="734" y="684"/>
      <point x="664" y="750"/>
      <point x="537" y="769" type="curve"/>
      <point x="370" y="763"/>
      <point x="280" y="680"/>
      <point x="267" y="520" type="curve"/>
      <point x="274" y="333"/>
      <point x="364" y="237"/>
      <point x="537" y="230" type="curve"/>
      <point x="664" y="250"/>
      <point x="734" y="310"/>
    </contour>
  </outline>
</glyph>
<glyph name="h" format="1">
  <advance width="1010"/>
  <unicode hex="0068"/>
  <outline>
    <contour>
      <point x="341" y="676" type="curve"/>
      <point x="341" y="0" type="line"/>
      <point x="61" y="0" type="line"/>
      <point x="61" y="1500" type="line"/>
      <point x="341" y="1500" type="line"/>
      <point x="341" y="910" type="line"/>
      <point x="408" y="970"/>
      <point x="488" y="1000"/>
      <point x="581" y="1000" type="curve" smooth="yes"/>
      <point x="834" y="1000"/>
      <point x="971" y="820"/>
      <point x="971" y="620" type="curve" smooth="yes"/>
      <point x="971" y="0" type="line"/>
      <point x="691" y="0" type="line"/>
      <point x="691" y="550" type="line" smooth="yes"/>
      <point x="691" y="683"/>
      <point x="625" y="759"/>
      <point x="490" y="763" type="curve"/>
      <point x="432" y="759"/>
      <point x="382" y="730"/>
    </contour>
  </outline>
</glyph>
<glyph name="i" format="1">
  <advance width="413"/>
  <unicode hex="0069"/>
  <outline>
    <contour>
      <point x="347" y="1001" type="line"/>
      <point x="347" y="0" type="line"/>
      <point x="67" y="0" type="line"/>
      <point x="67" y="1001" type="line"/>
    </contour>
    <contour>
      <point x="207" y="1100" type="curve" smooth="yes"/>
      <point x="300" y="1100"/>
      <point x="357" y="1160"/>
      <point x="357" y="1240" type="curve" smooth="yes"/>
      <point x="357" y="1320"/>
      <point x="301" y="1381"/>
      <point x="205" y="1381" type="curve" smooth="yes"/>
      <point x="114" y="1381"/>
      <point x="57" y="1320"/>
      <point x="57" y="1240" type="curve" smooth="yes"/>
      <point x="57" y="1160"/>
      <point x="114" y="1100"/>
    </contour>
  </outline>
</glyph>
<glyph name="j" format="1">
  <advance width="611"/>
  <unicode hex="006A"/>
  <outline>
    <contour>
      <point x="-36" y="-430" type="line"/>
      <point x="-36" y="-200" type="line"/>
      <point x="63" y="-200" type="line" smooth="yes"/>
      <point x="197" y="-194"/>
      <point x="264" y="-121"/>
      <point x="264" y="19" type="curve" smooth="yes"/>
      <point x="264" y="1000" type="line"/>
      <point x="545" y="1000" type="line"/>
      <point x="544" y="-31" type="line"/>
      <point x="544" y="-270"/>
      <point x="403" y="-430"/>
      <point x="166" y="-430" type="curve" smooth="yes"/>
    </contour>
    <contour>
      <point x="403" y="1100" type="curve" smooth="yes"/>
      <point x="496" y="1100"/>
      <point x="553" y="1160"/>
      <point x="553" y="1240" type="curve" smooth="yes"/>
      <point x="553" y="1320"/>
      <point x="497" y="1381"/>
      <point x="401" y="1381" type="curve" smooth="yes"/>
      <point x="310" y="1381"/>
      <point x="253" y="1320"/>
      <point x="253" y="1240" type="curve" smooth="yes"/>
      <point x="253" y="1160"/>
      <point x="310" y="1100"/>
    </contour>
  </outline>
</glyph>
<glyph name="k" format="1">
  <advance width="1089"/>
  <unicode hex="006B"/>
  <outline>
    <contour>
      <point x="361" y="0" type="line"/>
      <point x="61" y="0" type="line"/>
      <point x="61" y="1500" type="line"/>
      <point x="361" y="1500" type="line"/>
      <point x="361" y="651" type="line"/>
      <point x="648" y="1000" type="line"/>
      <point x="985" y="1000" type="line"/>
      <point x="611" y="551" type="line"/>
      <point x="1085" y="0" type="line"/>
      <point x="695" y="0" type="line"/>
      <point x="361" y="399" type="line"/>
    </contour>
  </outline>
</glyph>
<glyph name="m" format="1">
  <advance width="1629"/>
  <unicode hex="006D"/>
  <outline>
    <contour>
      <point x="332" y="640" type="curve"/>
      <point x="332" y="0" type="line"/>
      <point x="52" y="0" type="line"/>
      <point x="52" y="971" type="line"/>
      <point x="332" y="1001" type="line"/>
      <point x="332" y="912" type="line"/>
      <point x="395" y="971"/>
      <point x="475" y="1000"/>
      <point x="572" y="1000" type="curve" smooth="yes"/>
      <point x="699" y="1000"/>
      <point x="795" y="962"/>
      <point x="862" y="885" type="curve"/>
      <point x="935" y="962"/>
      <point x="1045" y="1000"/>
      <point x="1192" y="1000" type="curve" smooth="yes"/>
      <point x="1445" y="1000"/>
      <point x="1582" y="820"/>
      <point x="1582" y="620" type="curve" smooth="yes"/>
      <point x="1582" y="0" type="line"/>
      <point x="1302" y="0" type="line"/>
      <point x="1302" y="550" type="line" smooth="yes"/>
      <point x="1302" y="683"/>
      <point x="1246" y="759"/>
      <point x="1111" y="763" type="curve"/>
      <point x="1056" y="759"/>
      <point x="1008" y="722"/>
      <point x="967" y="653" type="curve"/>
      <point x="964" y="632"/>
      <point x="962" y="611"/>
      <point x="962" y="590" type="curve" smooth="yes"/>
      <point x="962" y="0" type="line"/>
      <point x="682" y="0" type="line"/>
      <point x="682" y="550" type="line" smooth="yes"/>
      <point x="682" y="683"/>
      <point x="626" y="759"/>
      <point x="491" y="763" type="curve"/>
      <point x="430" y="759"/>
      <point x="377" y="718"/>
    </contour>
  </outline>
</glyph>
<glyph name="n" format="1">
  <advance width="1009"/>
  <unicode hex="006E"/>
  <outline>
    <contour>
      <point x="332" y="636" type="curve"/>
      <point x="332" y="0" type="line"/>
      <point x="52" y="0" type="line"/>
      <point x="52" y="971" type="line"/>
      <point x="332" y="1001" type="line"/>
      <point x="332" y="910" type="line"/>
      <point x="399" y="970"/>
      <point x="479" y="1000"/>
      <point x="572" y="1000" type="curve" smooth="yes"/>
      <point x="825" y="1000"/>
      <point x="962" y="820"/>
      <point x="962" y="620" type="curve" smooth="yes"/>
      <point x="962" y="0" type="line"/>
      <point x="682" y="0" type="line"/>
      <point x="682" y="550" type="line" smooth="yes"/>
      <point x="682" y="683"/>
      <point x="616" y="759"/>
      <point x="481" y="763" type="curve"/>
      <point x="423" y="759"/>
      <point x="373" y="717"/>
    </contour>
  </outline>
</glyph>
<glyph name="o" format="1">
  <advance width="1067"/>
  <unicode hex="006F"/>
  <outline>
    <contour>
      <point x="22" y="500" type="curve" smooth="yes"/>
      <point x="22" y="791"/>
      <point x="241" y="1010"/>
      <point x="532" y="1010" type="curve" smooth="yes"/>
      <point x="823" y="1010"/>
      <point x="1042" y="791"/>
      <point x="1042" y="500" type="curve" smooth="yes"/>
      <point x="1042" y="209"/>
      <point x="823" y="-10"/>
      <point x="532" y="-10" type="curve" smooth="yes"/>
      <point x="241" y="-10"/>
      <point x="22" y="211"/>
    </contour>
    <contour>
      <point x="787" y="499" type="curve" smooth="yes"/>
      <point x="787" y="651"/>
      <point x="683" y="767"/>
      <point x="530" y="767" type="curve" smooth="yes"/>
      <point x="379" y="767"/>
      <point x="275" y="651"/>
      <point x="275" y="499" type="curve" smooth="yes"/>
      <point x="275" y="347"/>
      <point x="379" y="232"/>
      <point x="531" y="232" type="curve" smooth="yes"/>
      <point x="683" y="232"/>
      <point x="787" y="347"/>
    </contour>
  </outline>
</glyph>
<glyph name="p" format="1">
  <advance width="1077"/>
  <unicode hex="0070"/>
  <outline>
    <contour>
      <point x="332" y="82" type="curve"/>
      <point x="332" y="-421" type="line"/>
      <point x="52" y="-420" type="line"/>
      <point x="52" y="971" type="line"/>
      <point x="332" y="1001" type="line"/>
      <point x="332" y="921" type="line"/>
      <point x="407" y="974"/>
      <point x="480" y="1001"/>
      <point x="552" y="1001" type="curve" smooth="yes"/>
      <point x="859" y="1001"/>
      <point x="1052" y="768"/>
      <point x="1052" y="501" type="curve" smooth="yes"/>
      <point x="1052" y="234"/>
      <point x="859" y="1"/>
      <point x="552" y="1" type="curve"/>
      <point x="452" y="8"/>
      <point x="379" y="35"/>
    </contour>
    <contour>
      <point x="332" y="591" type="curve"/>
      <point x="332" y="429" type="line"/>
      <point x="345" y="317"/>
      <point x="415" y="251"/>
      <point x="542" y="232" type="curve"/>
      <point x="702" y="245"/>
      <point x="792" y="328"/>
      <point x="812" y="481" type="curve"/>
      <point x="805" y="668"/>
      <point x="715" y="764"/>
      <point x="542" y="771" type="curve"/>
      <point x="415" y="751"/>
      <point x="345" y="691"/>
    </contour>
  </outline>
</glyph>
<glyph name="q" format="1">
  <advance width="1077"/>
  <unicode hex="0071"/>
  <outline>
    <contour>
      <point x="1022" y="971" type="line"/>
      <point x="1022" y="-420" type="line"/>
      <point x="742" y="-421" type="line"/>
      <point x="742" y="82" type="line"/>
      <point x="695" y="35"/>
      <point x="622" y="8"/>
      <point x="522" y="1" type="curve"/>
      <point x="215" y="1"/>
      <point x="22" y="234"/>
      <point x="22" y="501" type="curve" smooth="yes"/>
      <point x="22" y="768"/>
      <point x="215" y="1001"/>
      <point x="522" y="1001" type="curve" smooth="yes"/>
      <point x="594" y="1001"/>
      <point x="667" y="974"/>
      <point x="742" y="921" type="curve"/>
      <point x="742" y="1001" type="line"/>
    </contour>
    <contour>
      <point x="742" y="429" type="curve"/>
      <point x="742" y="591" type="line"/>
      <point x="729" y="691"/>
      <point x="659" y="751"/>
      <point x="532" y="771" type="curve"/>
      <point x="359" y="764"/>
      <point x="269" y="668"/>
      <point x="262" y="481" type="curve"/>
      <point x="282" y="328"/>
      <point x="372" y="245"/>
      <point x="532" y="232" type="curve"/>
      <point x="659" y="251"/>
      <point x="729" y="317"/>
    </contour>
  </outline>
</glyph>
<glyph name="r" format="1">
  <advance width="695"/>
  <unicode hex="0072"/>
  <outline>
    <contour>
      <point x="52" y="971" type="line"/>
      <point x="332" y="1001" type="line"/>
      <point x="332" y="890" type="line"/>
      <point x="403" y="963"/>
      <point x="490" y="1000"/>
      <point x="593" y="1000" type="curve" smooth="yes"/>
      <point x="626" y="1000"/>
      <point x="657" y="997"/>
      <point x="686" y="992" type="curve"/>
      <point x="642" y="716" type="line"/>
      <point x="609" y="745"/>
      <point x="563" y="761"/>
      <point x="502" y="763" type="curve"/>
      <point x="434" y="758"/>
      <point x="377" y="709"/>
      <point x="332" y="615" type="curve"/>
      <point x="332" y="0" type="line"/>
      <point x="52" y="0" type="line"/>
    </contour>
  </outline>
</glyph>
<glyph name="s" format="1">
  <advance width="830"/>
  <unicode hex="0073"/>
  <outline>
    <contour>
      <point x="783" y="871" type="curve"/>
      <point x="627" y="695" type="line"/>
      <point x="582" y="749"/>
      <point x="525" y="776"/>
      <point x="457" y="776" type="curve" smooth="yes"/>
      <point x="390" y="776"/>
      <point x="345" y="764"/>
      <point x="322" y="739" type="curve" smooth="yes"/>
      <point x="299" y="714"/>
      <point x="299" y="691"/>
      <point x="322" y="671" type="curve" smooth="yes"/>
      <point x="345" y="650"/>
      <point x="390" y="633"/>
      <point x="457" y="620" type="curve"/>
      <point x="656" y="601"/>
      <point x="796" y="523"/>
      <point x="796" y="288" type="curve" smooth="yes"/>
      <point x="796" y="99"/>
      <point x="622" y="-10"/>
      <point x="423" y="-10" type="curve" smooth="yes"/>
      <point x="234" y="-10"/>
      <point x="115" y="48"/>
      <point x="24" y="139" type="curve"/>
      <point x="179" y="314" type="line"/>
      <point x="224" y="260"/>
      <point x="295" y="229"/>
      <point x="390" y="220" type="curve"/>
      <point x="467" y="220"/>
      <point x="516" y="233"/>
      <point x="539" y="258" type="curve" smooth="yes"/>
      <point x="561" y="283"/>
      <point x="564" y="308"/>
      <point x="549" y="333" type="curve" smooth="yes"/>
      <point x="533" y="358"/>
      <point x="480" y="374"/>
      <point x="390" y="383" type="curve" smooth="yes"/>
      <point x="227" y="402"/>
      <point x="65" y="463"/>
      <point x="65" y="688" type="curve" smooth="yes"/>
      <point x="65" y="895"/>
      <point x="255" y="1006"/>
      <point x="418" y="1006" type="curve" smooth="yes"/>
      <point x="606" y="1006"/>
      <point x="692" y="960"/>
    </contour>
  </outline>
</glyph>
<glyph name="t" format="1">
  <advance width="717"/>
  <unicode hex="0074"/>
  <outline>
    <contour>
      <point x="643" y="248" type="curve"/>
      <point x="702" y="47" type="line"/>
      <point x="654" y="16"/>
      <point x="599" y="0"/>
      <point x="537" y="0" type="curve" smooth="yes"/>
      <point x="310" y="0"/>
      <point x="167" y="140"/>
      <point x="167" y="340" type="curve" smooth="yes"/>
      <point x="167" y="773" type="line"/>
      <point x="17" y="773" type="line"/>
      <point x="17" y="999" type="line"/>
      <point x="167" y="999" type="line"/>
      <point x="167" y="1270" type="line"/>
      <point x="448" y="1300" type="line"/>
      <point x="448" y="999" type="line"/>
      <point x="598" y="999" type="line"/>
      <point x="598" y="773" type="line"/>
      <point x="448" y="773" type="line"/>
      <point x="448" y="380" type="line" smooth="yes"/>
      <point x="448" y="273"/>
      <point x="497" y="235"/>
      <point x="568" y="235" type="curve" smooth="yes"/>
      <point x="579" y="235"/>
      <point x="604" y="239"/>
    </contour>
  </outline>
</glyph>
<glyph name="u" format="1">
  <advance width="1009"/>
  <unicode hex="0075"/>
  <outline>
    <contour>
      <point x="674" y="355" type="curve"/>
      <point x="674" y="1001" type="line"/>
      <point x="954" y="1001" type="line"/>
      <point x="954" y="0" type="line"/>
      <point x="674" y="0" type="line"/>
      <point x="674" y="91" type="line"/>
      <point x="607" y="31"/>
      <point x="527" y="1"/>
      <point x="434" y="1" type="curve" smooth="yes"/>
      <point x="181" y="1"/>
      <point x="44" y="181"/>
      <point x="44" y="381" type="curve" smooth="yes"/>
      <point x="44" y="1001" type="line"/>
      <point x="324" y="1001" type="line"/>
      <point x="324" y="451" type="line" smooth="yes"/>
      <point x="324" y="318"/>
      <point x="390" y="242"/>
      <point x="525" y="238" type="curve"/>
      <point x="583" y="242"/>
      <point x="633" y="281"/>
    </contour>
  </outline>
</glyph>
<glyph name="v" format="1">
  <advance width="1055"/>
  <unicode hex="0076"/>
  <outline>
    <contour>
      <point x="523" y="375" type="line"/>
      <point x="288" y="1000" type="line"/>
      <point x="4" y="1000" type="line"/>
      <point x="406" y="0" type="line"/>
      <point x="646" y="0" type="line"/>
      <point x="1047" y="1000" type="line"/>
      <point x="763" y="1000" type="line"/>
    </contour>
  </outline>
</glyph>
<glyph name="w" format="1">
  <advance width="1364"/>
  <unicode hex="0077"/>
  <outline>
    <contour>
      <point x="531" y="0" type="line"/>
      <point x="681" y="501" type="line"/>
      <point x="831" y="0" type="line"/>
      <point x="1081" y="0" type="line"/>
      <point x="1348" y="1001" type="line"/>
      <point x="1085" y="1001" type="line"/>
      <point x="931" y="400" type="line"/>
      <point x="788" y="1001" type="line"/>
      <point x="581" y="1001" type="line"/>
      <point x="431" y="410" type="line"/>
      <point x="276" y="1001" type="line"/>
      <point x="13" y="1001" type="line"/>
      <point x="281" y="0" type="line"/>
    </contour>
  </outline>
</glyph>
<glyph name="x" format="1">
  <advance width="1026"/>
  <unicode hex="0078"/>
  <outline>
    <contour>
      <point x="301" y="0" type="line"/>
      <point x="14" y="0" type="line"/>
      <point x="370" y="521" type="line"/>
      <point x="46" y="998" type="line"/>
      <point x="330" y="998" type="line"/>
      <point x="513" y="730" type="line"/>
      <point x="696" y="998" type="line"/>
      <point x="980" y="998" type="line"/>
      <point x="656" y="521" type="line"/>
      <point x="1012" y="0" type="line"/>
      <point x="725" y="0" type="line"/>
      <point x="513" y="312" type="line"/>
    </contour>
  </outline>
</glyph>
<glyph name="y" format="1">
  <advance width="1014"/>
  <unicode hex="0079"/>
  <outline>
    <contour>
      <point x="679" y="346" type="curve"/>
      <point x="679" y="1000" type="line"/>
      <point x="959" y="1000" type="line"/>
      <point x="959" y="80" type="line" smooth="yes"/>
      <point x="959" y="-200"/>
      <point x="759" y="-409"/>
      <point x="519" y="-420" type="curve"/>
      <point x="459" y="-426" type="line"/>
      <point x="319" y="-422"/>
      <point x="192" y="-367"/>
      <point x="79" y="-260" type="curve"/>
      <point x="209" y="-110" type="line"/>
      <point x="289" y="-170"/>
      <point x="365" y="-203"/>
      <point x="436" y="-210" type="curve"/>
      <point x="609" y="-210"/>
      <point x="679" y="-120"/>
      <point x="679" y="40" type="curve" smooth="yes"/>
      <point x="679" y="91" type="line"/>
      <point x="608" y="30"/>
      <point x="527" y="0"/>
      <point x="434" y="0" type="curve" smooth="yes"/>
      <point x="181" y="0"/>
      <point x="44" y="180"/>
      <point x="44" y="380" type="curve" smooth="yes"/>
      <point x="44" y="1000" type="line"/>
      <point x="324" y="1000" type="line"/>
      <point x="324" y="450" type="line" smooth="yes"/>
      <point x="324" y="317"/>
      <point x="390" y="241"/>
      <point x="525" y="237" type="curve"/>
      <point x="584" y="241"/>
      <point x="635" y="277"/>
    </contour>
  </outline>
</glyph>
<glyph name="z" format="1">
  <advance width="864"/>
  <unicode hex="007A"/>
  <outline>
    <contour>
      <point x="413" y="236" type="line"/>
      <point x="830" y="236" type="line"/>
      <point x="830" y="0" type="line"/>
      <point x="31" y="0" type="line"/>
      <point x="31" y="67" type="line"/>
      <point x="447" y="762" type="line"/>
      <point x="31" y="762" type="line"/>
      <point x="31" y="998" type="line"/>
      <point x="830" y="998" type="line"/>
      <point x="830" y="925" type="line"/>
    </contour>
  </outline>
</glyph>
<glyph name="bar" format="1">
  <advance width="404"/>
  <unicode hex="007C"/>
  <outline>
    <contour>
      <point x="341" y="1899" type="line"/>
      <point x="341" y="-400" type="line"/>
      <point x="61" y="-400" type="line"/>
      <point x="61" y="1899" type="line"/>
    </contour>
  </outline>
</glyph>
<glyph name="sterling" format="1">
  <advance width="1175"/>
  <unicode hex="00A3"/>
  <outline>
    <contour>
      <point x="36" y="631" type="line"/>
      <point x="36" y="799" type="line"/>
      <point x="134" y="799" type="line"/>
      <point x="109" y="978"/>
      <point x="125" y="1242"/>
      <point x="299" y="1390" type="curve" smooth="yes"/>
      <point x="386" y="1463"/>
      <point x="492" y="1500"/>
      <point x="619" y="1500" type="curve" smooth="yes"/>
      <point x="858" y="1500"/>
      <point x="975" y="1443"/>
      <point x="1108" y="1310" type="curve"/>
      <point x="938" y="1080" type="line"/>
      <point x="871" y="1160"/>
      <point x="778" y="1203"/>
      <point x="658" y="1210" type="curve"/>
      <point x="471" y="1197"/>
      <point x="400" y="1107"/>
      <point x="393" y="920" type="curve" smooth="yes"/>
      <point x="392" y="879"/>
      <point x="394" y="839"/>
      <point x="401" y="799" type="curve"/>
      <point x="837" y="799" type="line"/>
      <point x="837" y="631" type="line"/>
      <point x="453" y="631" type="line"/>
      <point x="486" y="541"/>
      <point x="481" y="407"/>
      <point x="437" y="230" type="curve"/>
      <point x="1137" y="230" type="line"/>
      <point x="1137" y="0" type="line"/>
      <point x="107" y="0" type="line"/>
      <point x="107" y="230" type="line"/>
      <point x="214" y="343"/>
      <point x="239" y="472"/>
      <point x="183" y="615" type="curve"/>
      <point x="180" y="620"/>
      <point x="178" y="626"/>
      <point x="176" y="631" type="curve"/>
    </contour>
  </outline>
</glyph>
<glyph name="copyright" format="1">
  <advance width="1556"/>
  <unicode hex="00A9"/>
  <outline>
    <contour>
      <point x="1314" y="1232" type="curve" smooth="yes"/>
      <point x="1446" y="1096"/>
      <point x="1520" y="906"/>
      <point x="1520" y="718" type="curve" smooth="yes"/>
      <point x="1520" y="529"/>
      <point x="1447" y="344"/>
      <point x="1310" y="203" type="curve" smooth="yes"/>
      <point x="1170" y="56"/>
      <point x="981" y="-24"/>
      <point x="773" y="-24" type="curve" smooth="yes"/>
      <point x="569" y="-24"/>
      <point x="383" y="58"/>
      <point x="242" y="205" type="curve" smooth="yes"/>
      <point x="105" y="345"/>
      <point x="34" y="526"/>
      <point x="34" y="718" type="curve" smooth="yes"/>
      <point x="34" y="909"/>
      <point x="105" y="1093"/>
      <point x="240" y="1232" type="curve" smooth="yes"/>
      <point x="376" y="1377"/>
      <point x="571" y="1462"/>
      <point x="780" y="1462" type="curve" smooth="yes"/>
      <point x="983" y="1462"/>
      <point x="1175" y="1377"/>
    </contour>
    <contour>
      <point x="106" y="718" type="curve" smooth="yes"/>
      <point x="106" y="529"/>
      <point x="182" y="361"/>
      <point x="315" y="233" type="curve" smooth="yes"/>
      <point x="446" y="112"/>
      <point x="603" y="48"/>
      <point x="774" y="48" type="curve" smooth="yes"/>
      <point x="947" y="48"/>
      <point x="1108" y="111"/>
      <point x="1237" y="231" type="curve" smooth="yes"/>
      <point x="1370" y="360"/>
      <point x="1448" y="531"/>
      <point x="1448" y="718" type="curve" smooth="yes"/>
      <point x="1448" y="903"/>
      <point x="1369" y="1080"/>
      <point x="1241" y="1204" type="curve" smooth="yes"/>
      <point x="1113" y="1325"/>
      <point x="948" y="1390"/>
      <point x="779" y="1390" type="curve" smooth="yes"/>
      <point x="606" y="1390"/>
      <point x="444" y="1329"/>
      <point x="301" y="1193" type="curve" smooth="yes"/>
      <point x="186" y="1081"/>
      <point x="106" y="906"/>
    </contour>
    <contour>
      <point x="292" y="714" type="curve" smooth="yes"/>
      <point x="293" y="987"/>
      <point x="502" y="1198"/>
      <point x="777" y="1198" type="curve" smooth="yes"/>
      <point x="915" y="1198"/>
      <point x="1034" y="1155"/>
      <point x="1133" y="1068" type="curve"/>
      <point x="1004" y="927" type="line"/>
      <point x="938" y="978"/>
      <point x="862" y="1004"/>
      <point x="777" y="1004" type="curve" smooth="yes"/>
      <point x="602" y="1004"/>
      <point x="486" y="884"/>
      <point x="486" y="716" type="curve" smooth="yes"/>
      <point x="487" y="535"/>
      <point x="603" y="421"/>
      <point x="778" y="421" type="curve" smooth="yes"/>
      <point x="865" y="421"/>
      <point x="941" y="447"/>
      <point x="1004" y="498" type="curve"/>
      <point x="1133" y="356" type="line"/>
      <point x="1034" y="270"/>
      <point x="916" y="227"/>
      <point x="777" y="227" type="curve" smooth="yes"/>
      <point x="502" y="228"/>
      <point x="292" y="435"/>
    </contour>
  </outline>
</glyph>
<glyph name="guillemotleft" format="1">
  <advance width="929"/>
  <unicode hex="00AB"/>
  <outline>
    <contour>
      <point x="380" y="479" type="line"/>
      <point x="881" y="832" type="line"/>
      <point x="881" y="730" type="line"/>
      <point x="630" y="481" type="line"/>
      <point x="881" y="231" type="line"/>
      <point x="881" y="130" type="line"/>
    </contour>
    <contour>
      <point x="30" y="479" type="line"/>
      <point x="531" y="832" type="line"/>
      <point x="531" y="730" type="line"/>
      <point x="280" y="481" type="line"/>
      <point x="531" y="231" type="line"/>
      <point x="531" y="130" type="line"/>
    </contour>
  </outline>
</glyph>
<glyph name="registered" format="1">
  <advance width="1556"/>
  <unicode hex="00AE"/>
  <outline>
    <contour>
      <point x="1314" y="1232" type="curve" smooth="yes"/>
      <point x="1446" y="1096"/>
      <point x="1520" y="906"/>
      <point x="1520" y="718" type="curve" smooth="yes"/>
      <point x="1520" y="529"/>
      <point x="1447" y="344"/>
      <point x="1310" y="203" type="curve" smooth="yes"/>
      <point x="1170" y="56"/>
      <point x="981" y="-24"/>
      <point x="773" y="-24" type="curve" smooth="yes"/>
      <point x="569" y="-24"/>
      <point x="383" y="58"/>
      <point x="242" y="205" type="curve" smooth="yes"/>
      <point x="105" y="345"/>
      <point x="34" y="526"/>
      <point x="34" y="718" type="curve" smooth="yes"/>
      <point x="34" y="909"/>
      <point x="105" y="1093"/>
      <point x="240" y="1232" type="curve" smooth="yes"/>
      <point x="376" y="1377"/>
      <point x="571" y="1462"/>
      <point x="780" y="1462" type="curve" smooth="yes"/>
      <point x="983" y="1462"/>
      <point x="1175" y="1377"/>
    </contour>
    <contour>
      <point x="106" y="718" type="curve" smooth="yes"/>
      <point x="106" y="529"/>
      <point x="182" y="361"/>
      <point x="315" y="233" type="curve" smooth="yes"/>
      <point x="446" y="112"/>
      <point x="603" y="48"/>
      <point x="774" y="48" type="curve" smooth="yes"/>
      <point x="947" y="48"/>
      <point x="1108" y="111"/>
      <point x="1237" y="231" type="curve" smooth="yes"/>
      <point x="1370" y="360"/>
      <point x="1448" y="531"/>
      <point x="1448" y="718" type="curve" smooth="yes"/>
      <point x="1448" y="903"/>
      <point x="1369" y="1080"/>
      <point x="1241" y="1204" type="curve" smooth="yes"/>
      <point x="1113" y="1325"/>
      <point x="948" y="1390"/>
      <point x="779" y="1390" type="curve" smooth="yes"/>
      <point x="606" y="1390"/>
      <point x="444" y="1329"/>
      <point x="301" y="1193" type="curve" smooth="yes"/>
      <point x="186" y="1081"/>
      <point x="106" y="906"/>
    </contour>
    <contour>
      <point x="850" y="999" type="curve" smooth="yes"/>
      <point x="598" y="999" type="line"/>
      <point x="598" y="809" type="line"/>
      <point x="848" y="809" type="line" smooth="yes"/>
      <point x="920" y="810"/>
      <point x="957" y="842"/>
      <point x="959" y="907" type="curve"/>
      <point x="957" y="966"/>
      <point x="921" y="996"/>
    </contour>
    <contour>
      <point x="957" y="662" type="curve"/>
      <point x="1180" y="272" type="line"/>
      <point x="975" y="272" type="line"/>
      <point x="760" y="642" type="line"/>
      <point x="598" y="642" type="line"/>
      <point x="598" y="272" type="line"/>
      <point x="419" y="272" type="line"/>
      <point x="419" y="1166" type="line"/>
      <point x="809" y="1166" type="line" smooth="yes"/>
      <point x="1018" y="1166"/>
      <point x="1122" y="1080"/>
      <point x="1122" y="909" type="curve" smooth="yes"/>
      <point x="1122" y="780"/>
      <point x="1067" y="697"/>
    </contour>
  </outline>
</glyph>
<glyph name="degree" format="1">
  <advance width="688"/>
  <unicode hex="00B0"/>
  <outline>
    <contour>
      <point x="344" y="1373" type="curve" smooth="yes"/>
      <point x="261" y="1373"/>
      <point x="168" y="1307"/>
      <point x="168" y="1198" type="curve" smooth="yes"/>
      <point x="168" y="1091"/>
      <point x="261" y="1023"/>
      <point x="344" y="1023" type="curve" smooth="yes"/>
      <point x="427" y="1023"/>
      <point x="518" y="1090"/>
      <point x="518" y="1198" type="curve" smooth="yes"/>
      <point x="518" y="1307"/>
      <point x="427" y="1373"/>
    </contour>
    <contour>
      <point x="645" y="1197" type="curve" smooth="yes"/>
      <point x="645" y="1045"/>
      <point x="520" y="896"/>
      <point x="341" y="896" type="curve" smooth="yes"/>
      <point x="162" y="896"/>
      <point x="41" y="1041"/>
      <point x="41" y="1197" type="curve" smooth="yes"/>
      <point x="41" y="1354"/>
      <point x="164" y="1500"/>
      <point x="343" y="1500" type="curve" smooth="yes"/>
      <point x="522" y="1500"/>
      <point x="645" y="1352"/>
    </contour>
  </outline>
</glyph>
<glyph name="guillemotright" format="1">
  <advance width="927"/>
  <unicode hex="00BB"/>
  <outline>
    <contour>
      <point x="298" y="481" type="line"/>
      <point x="47" y="730" type="line"/>
      <point x="47" y="832" type="line"/>
      <point x="548" y="479" type="line"/>
      <point x="47" y="130" type="line"/>
      <point x="47" y="231" type="line"/>
    </contour>
    <contour>
      <point x="648" y="481" type="line"/>
      <point x="397" y="730" type="line"/>
      <point x="397" y="832" type="line"/>
      <point x="898" y="479" type="line"/>
      <point x="397" y="130" type="line"/>
      <point x="397" y="231" type="line"/>
    </contour>
  </outline>
</glyph>
<glyph name="divide" format="1">
  <advance width="1004"/>
  <unicode hex="00F7"/>
  <outline>
    <contour>
      <point x="976" y="797" type="line"/>
      <point x="976" y="637" type="line"/>
      <point x="28" y="637" type="line"/>
      <point x="28" y="797" type="line"/>
    </contour>
    <contour>
      <point x="498" y="919" type="curve" smooth="yes"/>
      <point x="591" y="919"/>
      <point x="648" y="979"/>
      <point x="648" y="1059" type="curve" smooth="yes"/>
      <point x="648" y="1139"/>
      <point x="592" y="1200"/>
      <point x="496" y="1200" type="curve" smooth="yes"/>
      <point x="405" y="1200"/>
      <point x="348" y="1139"/>
      <point x="348" y="1059" type="curve" smooth="yes"/>
      <point x="348" y="979"/>
      <point x="405" y="919"/>
    </contour>
    <contour>
      <point x="498" y="219" type="curve" smooth="yes"/>
      <point x="591" y="219"/>
      <point x="648" y="279"/>
      <point x="648" y="359" type="curve" smooth="yes"/>
      <point x="648" y="439"/>
      <point x="592" y="500"/>
      <point x="496" y="500" type="curve" smooth="yes"/>
      <point x="405" y="500"/>
      <point x="348" y="439"/>
      <point x="348" y="359" type="curve" smooth="yes"/>
      <point x="348" y="279"/>
      <point x="405" y="219"/>
    </contour>
  </outline>
</glyph>
<glyph name="endash" format="1">
  <advance width="1112"/>
  <unicode hex="2013"/>
  <outline>
    <contour>
      <point x="1053" y="559" type="line"/>
      <point x="1053" y="399" type="line"/>
      <point x="57" y="399" type="line"/>
      <point x="57" y="559" type="line"/>
    </contour>
  </outline>
</glyph>
<glyph name="emdash" format="1">
  <advance width="2164"/>
  <unicode hex="2014"/>
  <outline>
    <contour>
      <point x="2105" y="559" type="line"/>
      <point x="2105" y="399" type="line"/>
      <point x="57" y="399" type="line"/>
      <point x="57" y="559" type="line"/>
    </contour>
  </outline>
</glyph>
<glyph name="quoteleft" format="1">
  <advance width="390"/>
  <unicode hex="2018"/>
  <outline>
    <contour>
      <point x="195" y="1381" type="curve" smooth="yes"/>
      <point x="184" y="1381" type="line"/>
      <point x="204" y="1440"/>
      <point x="241" y="1480"/>
      <point x="295" y="1501" type="curve"/>
      <point x="245" y="1591" type="line"/>
      <point x="112" y="1524"/>
      <point x="45" y="1409"/>
      <point x="45" y="1248" type="curve" smooth="yes"/>
      <point x="45" y="1241" type="line" smooth="yes"/>
      <point x="45" y="1161"/>
      <point x="101" y="1100"/>
      <point x="197" y="1100" type="curve" smooth="yes"/>
      <point x="288" y="1100"/>
      <point x="345" y="1161"/>
      <point x="345" y="1241" type="curve" smooth="yes"/>
      <point x="345" y="1321"/>
      <point x="288" y="1381"/>
    </contour>
  </outline>
</glyph>
<glyph name="quoteright" format="1">
  <advance width="384"/>
  <unicode hex="2019"/>
  <outline>
    <contour>
      <point x="191" y="1310" type="curve" smooth="yes"/>
      <point x="202" y="1310" type="line"/>
      <point x="182" y="1251"/>
      <point x="145" y="1211"/>
      <point x="91" y="1190" type="curve"/>
      <point x="141" y="1100" type="line"/>
      <point x="274" y="1167"/>
      <point x="341" y="1282"/>
      <point x="341" y="1443" type="curve" smooth="yes"/>
      <point x="341" y="1450" type="line" smooth="yes"/>
      <point x="341" y="1530"/>
      <point x="285" y="1591"/>
      <point x="189" y="1591" type="curve" smooth="yes"/>
      <point x="98" y="1591"/>
      <point x="41" y="1530"/>
      <point x="41" y="1450" type="curve" smooth="yes"/>
      <point x="41" y="1370"/>
      <point x="98" y="1310"/>
    </contour>
  </outline>
</glyph>
<glyph name="quotesinglbase" format="1">
  <advance width="405"/>
  <unicode hex="201A"/>
  <outline>
    <contour>
      <point x="202" y="0" type="curve" smooth="yes"/>
      <point x="213" y="0" type="line"/>
      <point x="193" y="-59"/>
      <point x="156" y="-99"/>
      <point x="102" y="-120" type="curve"/>
      <point x="152" y="-210" type="line"/>
      <point x="285" y="-143"/>
      <point x="352" y="-28"/>
      <point x="352" y="133" type="curve" smooth="yes"/>
      <point x="352" y="140" type="line" smooth="yes"/>
      <point x="352" y="220"/>
      <point x="296" y="281"/>
      <point x="200" y="281" type="curve" smooth="yes"/>
      <point x="109" y="281"/>
      <point x="52" y="220"/>
      <point x="52" y="140" type="curve" smooth="yes"/>
      <point x="52" y="60"/>
      <point x="109" y="0"/>
    </contour>
  </outline>
</glyph>
<glyph name="quotedblleft" format="1">
  <advance width="761"/>
  <unicode hex="201C"/>
  <outline>
    <contour>
      <point x="195" y="1381" type="curve" smooth="yes"/>
      <point x="184" y="1381" type="line"/>
      <point x="204" y="1440"/>
      <point x="241" y="1480"/>
      <point x="295" y="1501" type="curve"/>
      <point x="245" y="1591" type="line"/>
      <point x="112" y="1524"/>
      <point x="45" y="1409"/>
      <point x="45" y="1248" type="curve" smooth="yes"/>
      <point x="45" y="1241" type="line" smooth="yes"/>
      <point x="45" y="1161"/>
      <point x="101" y="1100"/>
      <point x="197" y="1100" type="curve" smooth="yes"/>
      <point x="288" y="1100"/>
      <point x="345" y="1161"/>
      <point x="345" y="1241" type="curve" smooth="yes"/>
      <point x="345" y="1321"/>
      <point x="288" y="1381"/>
    </contour>
    <contour>
      <point x="566" y="1381" type="curve" smooth="yes"/>
      <point x="555" y="1381" type="line"/>
      <point x="575" y="1440"/>
      <point x="612" y="1480"/>
      <point x="666" y="1501" type="curve"/>
      <point x="616" y="1591" type="line"/>
      <point x="483" y="1524"/>
      <point x="416" y="1409"/>
      <point x="416" y="1248" type="curve" smooth="yes"/>
      <point x="416" y="1241" type="line" smooth="yes"/>
      <point x="416" y="1161"/>
      <point x="472" y="1100"/>
      <point x="568" y="1100" type="curve" smooth="yes"/>
      <point x="659" y="1100"/>
      <point x="716" y="1161"/>
      <point x="716" y="1241" type="curve" smooth="yes"/>
      <point x="716" y="1321"/>
      <point x="659" y="1381"/>
    </contour>
  </outline>
</glyph>
<glyph name="quotedblbase" format="1">
  <advance width="776"/>
  <unicode hex="201E"/>
  <outline>
    <contour>
      <point x="573" y="-21" type="curve" smooth="yes"/>
      <point x="584" y="-21" type="line"/>
      <point x="564" y="-80"/>
      <point x="527" y="-120"/>
      <point x="473" y="-141" type="curve"/>
      <point x="523" y="-231" type="line"/>
      <point x="656" y="-164"/>
      <point x="723" y="-49"/>
      <point x="723" y="112" type="curve" smooth="yes"/>
      <point x="723" y="119" type="line" smooth="yes"/>
      <point x="723" y="199"/>
      <point x="667" y="260"/>
      <point x="571" y="260" type="curve" smooth="yes"/>
      <point x="480" y="260"/>
      <point x="423" y="199"/>
      <point x="423" y="119" type="curve" smooth="yes"/>
      <point x="423" y="39"/>
      <point x="480" y="-21"/>
    </contour>
    <contour>
      <point x="202" y="-21" type="curve" smooth="yes"/>
      <point x="213" y="-21" type="line"/>
      <point x="193" y="-80"/>
      <point x="156" y="-120"/>
      <point x="102" y="-141" type="curve"/>
      <point x="152" y="-231" type="line"/>
      <point x="285" y="-164"/>
      <point x="352" y="-49"/>
      <point x="352" y="112" type="curve" smooth="yes"/>
      <point x="352" y="119" type="line" smooth="yes"/>
      <point x="352" y="199"/>
      <point x="296" y="260"/>
      <point x="200" y="260" type="curve" smooth="yes"/>
      <point x="109" y="260"/>
      <point x="52" y="199"/>
      <point x="52" y="119" type="curve" smooth="yes"/>
      <point x="52" y="39"/>
      <point x="109" y="-21"/>
    </contour>
  </outline>
</glyph>
<glyph name="ellipsis" format="1">
  <advance width="1805"/>
  <unicode hex="2026"/>
  <outline>
    <contour>
      <point x="202" y="0" type="curve" smooth="yes"/>
      <point x="295" y="0"/>
      <point x="352" y="60"/>
      <point x="352" y="140" type="curve" smooth="yes"/>
      <point x="352" y="220"/>
      <point x="296" y="281"/>
      <point x="200" y="281" type="curve" smooth="yes"/>
      <point x="109" y="281"/>
      <point x="52" y="220"/>
      <point x="52" y="140" type="curve" smooth="yes"/>
      <point x="52" y="60"/>
      <point x="109" y="0"/>
    </contour>
    <contour>
      <point x="901" y="0" type="curve" smooth="yes"/>
      <point x="994" y="0"/>
      <point x="1051" y="60"/>
      <point x="1051" y="140" type="curve" smooth="yes"/>
      <point x="1051" y="220"/>
      <point x="995" y="281"/>
      <point x="899" y="281" type="curve" smooth="yes"/>
      <point x="808" y="281"/>
      <point x="751" y="220"/>
      <point x="751" y="140" type="curve" smooth="yes"/>
      <point x="751" y="60"/>
      <point x="808" y="0"/>
    </contour>
    <contour>
      <point x="1603" y="0" type="curve" smooth="yes"/>
      <point x="1696" y="0"/>
      <point x="1753" y="60"/>
      <point x="1753" y="140" type="curve" smooth="yes"/>
      <point x="1753" y="220"/>
      <point x="1697" y="281"/>
      <point x="1601" y="281" type="curve" smooth="yes"/>
      <point x="1510" y="281"/>
      <point x="1453" y="220"/>
      <point x="1453" y="140" type="curve" smooth="yes"/>
      <point x="1453" y="60"/>
      <point x="1510" y="0"/>
    </contour>
  </outline>
</glyph>
<glyph name="guilsinglleft" format="1">
  <advance width="479"/>
  <unicode hex="2039"/>
  <outline>
    <contour>
      <point x="432" y="166" type="line"/>
      <point x="384" y="166" type="line"/>
      <point x="31" y="479" type="line"/>
      <point x="384" y="792" type="line"/>
      <point x="432" y="792" type="line"/>
      <point x="432" y="745" type="line"/>
      <point x="227" y="479" type="line"/>
      <point x="432" y="213" type="line"/>
    </contour>
  </outline>
</glyph>
<glyph name="guilsinglright" format="1">
  <advance width="478"/>
  <unicode hex="203A"/>
  <outline>
    <contour>
      <point x="94" y="792" type="line"/>
      <point x="447" y="479" type="line"/>
      <point x="94" y="166" type="line"/>
      <point x="46" y="166" type="line"/>
      <point x="46" y="213" type="line"/>
      <point x="251" y="479" type="line"/>
      <point x="46" y="745" type="line"/>
      <point x="46" y="792" type="line"/>
    </contour>
  </outline>
</glyph>
<glyph name="fraction" format="1">
  <advance width="782"/>
  <unicode hex="2044"/>
  <outline>
    <contour>
      <point x="754" y="1454" type="line"/>
      <point x="116" y="-20" type="line"/>
      <point x="30" y="-20" type="line"/>
      <point x="670" y="1454" type="line"/>
    </contour>
  </outline>
</glyph>
<glyph name="Euro" format="1">
  <advance width="1464"/>
  <unicode hex="20AC"/>
  <outline>
    <contour>
      <point x="32" y="800" type="line"/>
      <point x="32" y="940" type="line"/>
      <point x="154" y="940" type="line"/>
      <point x="217" y="1201"/>
      <point x="458" y="1500"/>
      <point x="882" y="1500" type="curve" smooth="yes"/>
      <point x="1096" y="1500"/>
      <point x="1280" y="1433"/>
      <point x="1433" y="1300" type="curve"/>
      <point x="1233" y="1081" type="line"/>
      <point x="1029" y="1241"/>
      <point x="721" y="1242"/>
      <point x="557" y="1075" type="curve" smooth="yes"/>
      <point x="518" y="1035"/>
      <point x="488" y="990"/>
      <point x="467" y="940" type="curve"/>
      <point x="1033" y="940" type="line"/>
      <point x="1033" y="800" type="line"/>
      <point x="435" y="800" type="line"/>
      <point x="434" y="785"/>
      <point x="433" y="770"/>
      <point x="433" y="755" type="curve" smooth="yes"/>
      <point x="433" y="736"/>
      <point x="434" y="718"/>
      <point x="435" y="701" type="curve"/>
      <point x="1033" y="701" type="line"/>
      <point x="1033" y="561" type="line"/>
      <point x="467" y="561" type="line"/>
      <point x="488" y="508"/>
      <point x="518" y="462"/>
      <point x="558" y="423" type="curve" smooth="yes"/>
      <point x="641" y="341"/>
      <point x="749" y="300"/>
      <point x="884" y="300" type="curve" smooth="yes"/>
      <point x="1019" y="300"/>
      <point x="1135" y="340"/>
      <point x="1233" y="419" type="curve"/>
      <point x="1433" y="200" type="line"/>
      <point x="1128" y="-67"/>
      <point x="636" y="-71"/>
      <point x="349" y="216" type="curve" smooth="yes"/>
      <point x="250" y="314"/>
      <point x="185" y="429"/>
      <point x="154" y="561" type="curve"/>
      <point x="32" y="561" type="line"/>
      <point x="32" y="701" type="line"/>
      <point x="134" y="701" type="line"/>
      <point x="133" y="718"/>
      <point x="133" y="736"/>
      <point x="133" y="753" type="curve" smooth="yes"/>
      <point x="133" y="769"/>
      <point x="133" y="785"/>
      <point x="134" y="800" type="curve"/>
    </contour>
  </outline>
</glyph>
<glyph name="minus" format="1">
  <advance width="1070"/>
  <unicode hex="2212"/>
  <outline>
    <contour>
      <point x="1007" y="797" type="line"/>
      <point x="1007" y="637" type="line"/>
      <point x="59" y="637" type="line"/>
      <point x="59" y="797" type="line"/>
    </contour>
  </outline>
</glyph>
